{"glyphs":{"0":{"ha":924,"x_min":0,"x_max":0,"o":"m 81 507 b 463 -11 81 204 254 -11 b 843 506 671 -11 843 203 b 463 1025 843 811 671 1025 b 81 507 254 1025 81 810 z m 222 507 b 296 860 222 688 257 819 b 463 911 315 882 372 911 b 628 860 554 911 606 882 b 701 507 667 819 701 688 b 628 158 701 328 667 199 b 463 104 610 138 553 104 b 296 160 369 104 315 138 b 222 507 260 199 222 331 z "},"1":{"ha":635,"x_min":0,"x_max":0,"o":"m 69 0 l 579 0 l 579 114 l 393 114 l 393 1028 l 69 913 l 69 801 l 164 833 b 268 876 214 850 268 876 b 268 114 268 540 268 356 l 69 114 z "},"2":{"ha":750,"x_min":0,"x_max":0,"o":"m 674 0 l 674 114 l 186 114 b 274 196 186 114 232 153 b 647 743 511 446 647 574 b 339 1025 647 897 528 1025 b 79 931 208 1025 125 963 l 79 826 b 343 911 126 854 208 911 b 479 874 436 911 464 892 b 507 743 494 856 507 822 b 479 593 507 661 492 614 b 35 97 411 485 253 324 l 35 0 z "},"3":{"ha":792,"x_min":0,"x_max":0,"o":"m 82 900 l 504 900 b 406 814 504 900 435 844 l 190 603 b 190 508 190 603 190 508 b 321 519 190 508 243 519 b 500 478 432 519 481 496 b 546 313 521 458 546 408 b 500 144 546 217 521 164 b 322 103 481 126 429 103 b 35 190 178 103 79 167 l 35 81 b 319 -11 86 49 178 -11 b 688 314 531 -11 688 133 b 336 624 688 497 549 624 b 433 706 336 624 396 668 b 649 917 560 828 631 899 l 649 1014 l 82 1014 z "},"4":{"ha":825,"x_min":0,"x_max":0,"o":"m 596 0 l 596 283 l 756 283 l 756 392 l 596 392 l 596 1021 l 494 1021 l 7 374 l 7 283 l 474 283 l 474 0 z m 482 839 b 474 700 482 839 474 747 l 474 392 l 274 392 b 143 386 242 392 147 386 z "},"5":{"ha":797,"x_min":0,"x_max":0,"o":"m 661 1014 l 167 1014 l 114 507 b 347 533 154 517 240 533 b 525 494 451 533 510 508 b 572 321 542 478 572 418 b 525 146 572 221 546 165 b 357 103 506 128 460 103 b 69 185 213 103 114 161 l 69 75 b 354 -11 121 43 213 -11 b 714 321 553 -11 714 136 b 372 640 714 500 589 640 b 246 629 335 640 292 638 l 274 900 l 661 900 z "},"6":{"ha":861,"x_min":0,"x_max":0,"o":"m 724 967 b 493 1025 701 982 617 1025 b 83 471 239 1025 83 793 b 446 -11 83 163 250 -11 b 799 324 649 -11 799 143 b 458 647 799 503 667 647 b 222 540 335 647 265 590 b 310 858 232 713 269 818 b 492 911 329 881 393 911 b 724 861 622 911 704 872 z m 222 414 b 449 538 236 475 314 538 b 619 489 557 538 601 507 b 657 321 636 472 657 422 b 617 149 657 224 633 165 b 447 103 601 135 558 103 b 289 153 353 103 306 135 b 222 414 263 183 222 276 z "},"7":{"ha":696,"x_min":0,"x_max":0,"o":"m 238 0 l 661 921 l 661 1014 l 21 1014 b 21 900 21 1014 21 899 l 539 900 b 471 786 539 900 493 833 l 104 0 z "},"8":{"ha":896,"x_min":0,"x_max":0,"o":"m 267 553 b 89 296 163 510 89 425 b 449 -11 89 119 253 -11 b 807 296 644 -11 807 119 b 629 554 807 428 733 511 b 757 761 706 594 757 663 b 449 1025 757 903 617 1025 b 139 761 276 1025 139 903 b 267 553 139 663 190 593 z m 229 296 b 274 451 229 388 258 436 b 449 497 288 465 347 497 b 622 450 550 497 608 464 b 667 296 638 435 667 388 b 622 140 667 204 640 158 b 449 103 606 124 550 103 b 274 142 346 103 290 125 b 229 296 256 160 229 204 z m 278 761 b 311 883 278 838 301 874 b 449 914 325 897 367 914 b 585 883 531 914 571 897 b 618 761 594 874 618 838 b 585 638 618 683 594 647 b 449 603 571 624 526 603 b 311 639 371 603 325 625 b 278 761 301 649 278 683 z "},"9":{"ha":844,"x_min":0,"x_max":0,"o":"m 122 58 b 354 -11 144 43 226 -11 b 761 539 611 -11 761 221 b 404 1025 761 867 596 1025 b 63 693 204 1025 63 869 b 394 376 63 510 203 376 b 622 481 518 376 579 431 b 536 156 613 308 576 196 b 356 104 517 133 454 104 b 122 167 225 104 142 156 z m 621 607 b 400 486 607 547 535 486 b 238 535 292 486 253 519 b 203 696 222 550 203 594 b 240 865 203 793 224 849 b 404 911 256 879 293 911 b 560 863 499 911 543 881 b 621 607 586 832 621 761 z "}," ":{"ha":403,"x_min":0,"x_max":0,"o":""},"!":{"ha":408,"x_min":0,"x_max":0,"o":"m 283 1014 l 126 1014 l 154 329 l 254 329 z m 297 82 b 204 175 297 133 256 175 b 111 82 153 175 111 133 b 204 -11 111 31 153 -11 b 297 82 256 -11 297 31 z "},"\"":{"ha":492,"x_min":0,"x_max":0,"o":"m 197 1014 l 56 1014 l 56 708 l 144 708 z m 443 1014 l 301 1014 l 301 708 l 390 708 z "},"#":{"ha":1029,"x_min":0,"x_max":0,"o":"m 622 0 l 688 306 l 914 306 l 936 407 l 708 407 l 756 625 l 979 625 l 1001 726 l 776 726 l 840 1025 l 732 1025 l 668 726 l 451 726 l 515 1025 l 407 1025 l 343 726 l 115 726 l 93 625 l 322 625 l 275 407 l 50 407 l 28 306 l 254 306 l 189 0 l 297 0 l 363 306 l 579 306 l 514 0 z m 431 625 l 647 625 l 600 407 l 383 407 z "},"$":{"ha":844,"x_min":0,"x_max":0,"o":"m 485 4 b 761 292 664 29 761 143 b 575 538 761 421 675 494 b 364 597 497 571 429 582 b 251 649 306 611 272 628 b 253 849 222 678 221 807 b 419 899 269 869 319 899 b 711 833 563 899 657 858 l 711 940 b 485 1011 668 967 590 1001 l 485 1182 l 368 1182 l 368 1010 b 92 740 179 989 92 864 b 274 499 92 618 175 539 b 481 439 351 467 415 456 b 599 383 547 422 575 408 b 597 168 629 350 632 214 b 417 118 581 146 521 118 b 83 207 263 118 140 179 l 83 92 b 368 1 139 60 236 11 l 368 -167 l 485 -167 z "},"%":{"ha":1122,"x_min":0,"x_max":0,"o":"m 118 0 l 236 0 l 1004 1014 l 886 1014 z m 69 793 b 296 560 69 657 171 560 b 522 793 419 560 522 657 b 296 1022 522 926 419 1022 b 69 793 171 1022 69 926 z m 185 793 b 207 903 185 850 196 890 b 296 929 218 915 250 929 b 385 903 342 929 374 915 b 407 793 394 890 407 850 b 385 681 407 736 394 693 b 296 654 374 668 342 654 b 207 681 250 654 218 668 b 185 793 196 692 185 738 z m 600 225 b 826 -8 600 89 701 -8 b 1053 225 950 -8 1053 89 b 826 454 1053 358 950 454 b 600 225 701 454 600 358 z m 715 225 b 738 335 715 282 726 322 b 826 361 749 347 781 361 b 915 335 872 361 904 347 b 938 225 925 322 938 282 b 915 113 938 168 925 125 b 826 86 904 100 872 86 b 738 113 781 86 749 100 b 715 225 726 124 715 169 z "},"&":{"ha":1003,"x_min":0,"x_max":0,"o":"m 817 586 b 714 278 806 453 774 347 l 486 547 b 697 800 604 596 697 672 b 468 1025 697 924 599 1025 b 238 797 338 1025 238 917 b 315 586 238 722 261 661 l 279 572 b 76 279 189 538 76 431 b 392 -11 76 113 222 -11 b 700 128 517 -11 618 47 l 808 0 l 954 0 l 781 203 b 933 608 869 304 924 440 z m 638 199 b 394 96 615 174 515 96 b 240 142 294 96 254 126 b 204 278 228 154 204 199 b 239 432 204 360 226 417 b 378 506 258 456 288 476 z m 422 625 b 388 676 422 625 396 660 b 361 797 379 692 361 724 b 386 901 361 857 376 892 b 468 921 396 911 421 921 b 550 901 514 921 540 911 b 576 799 560 892 576 861 b 549 694 576 732 560 707 b 422 625 531 674 493 651 z "},"'":{"ha":246,"x_min":0,"x_max":0,"o":"m 197 1014 l 56 1014 l 56 708 l 147 708 z "},"(":{"ha":450,"x_min":0,"x_max":0,"o":"m 333 -299 b 450 -299 333 -299 450 -299 b 324 -143 450 -299 361 -211 b 231 363 278 -60 231 107 b 325 872 231 619 279 790 b 450 1025 364 940 450 1025 b 333 1025 450 1025 333 1025 b 97 363 211 910 97 650 b 333 -299 97 75 211 -183 z "},")":{"ha":450,"x_min":0,"x_max":0,"o":"m 117 1025 b 0 1025 117 1025 0 1025 b 125 872 0 1025 86 940 b 219 363 171 790 219 619 b 126 -143 219 107 172 -60 b 0 -299 89 -211 0 -299 b 117 -299 0 -299 117 -299 b 353 363 239 -183 353 75 b 117 1025 353 650 239 910 z "},"*":{"ha":578,"x_min":0,"x_max":0,"o":"m 240 1014 l 246 847 l 104 935 l 56 851 l 201 772 l 56 693 l 104 610 l 246 696 l 240 531 l 338 531 l 331 696 l 474 610 l 522 693 l 375 772 l 522 851 l 474 935 l 331 847 l 338 1014 z "},"+":{"ha":831,"x_min":0,"x_max":0,"o":"m 69 465 l 363 465 l 363 169 l 469 169 l 469 465 l 761 465 l 761 568 l 469 568 l 469 864 l 363 864 l 363 568 l 69 568 z "},",":{"ha":342,"x_min":0,"x_max":0,"o":"m 158 175 b 69 88 106 175 69 136 b 156 0 69 39 103 0 b 179 3 165 0 179 3 b 93 -208 179 -75 118 -172 l 185 -208 b 272 17 211 -171 272 -93 b 158 175 272 128 221 175 z "},"-":{"ha":515,"x_min":0,"x_max":0,"o":"m 83 372 l 432 372 l 432 479 l 83 479 z "},".":{"ha":325,"x_min":0,"x_max":0,"o":"m 256 82 b 163 175 256 133 214 175 b 69 82 111 175 69 133 b 163 -11 69 31 111 -11 b 256 82 214 -11 256 31 z "},"/":{"ha":582,"x_min":0,"x_max":0,"o":"m -49 -211 l 56 -211 l 631 1025 l 526 1025 z "},":":{"ha":394,"x_min":0,"x_max":0,"o":"m 290 82 b 197 175 290 133 249 175 b 104 82 146 175 104 133 b 197 -11 104 31 146 -11 b 290 82 249 -11 290 31 z m 290 613 b 197 706 290 664 249 706 b 104 613 146 706 104 664 b 197 519 104 561 146 519 b 290 613 249 519 290 561 z "},";":{"ha":397,"x_min":0,"x_max":0,"o":"m 300 613 b 207 706 300 664 258 706 b 114 613 156 706 114 664 b 207 519 114 561 156 519 b 300 613 258 519 300 561 z m 193 175 b 104 88 140 175 104 136 b 190 0 104 39 138 0 b 214 3 200 0 214 3 b 128 -208 214 -75 153 -172 l 219 -208 b 307 17 246 -171 307 -93 b 193 175 307 128 256 175 z "},"<":{"ha":683,"x_min":0,"x_max":0,"o":"m 600 172 l 600 300 l 258 483 b 181 517 229 497 181 517 b 258 550 181 517 229 536 l 600 733 l 600 861 l 35 546 b 35 488 35 546 35 488 z "},"=":{"ha":864,"x_min":0,"x_max":0,"o":"m 83 592 l 781 592 l 781 694 l 83 694 z m 83 289 l 781 289 l 781 392 l 83 392 z "},">":{"ha":683,"x_min":0,"x_max":0,"o":"m 649 488 b 649 546 649 488 649 546 l 83 861 l 83 733 l 425 550 b 503 517 454 536 503 517 b 425 483 503 517 454 497 l 83 300 l 83 172 z "},"?":{"ha":622,"x_min":0,"x_max":0,"o":"m 342 82 b 249 175 342 133 300 175 b 156 82 197 175 156 133 b 249 -11 156 31 197 -11 b 342 82 300 -11 342 31 z m 301 319 b 317 413 301 319 304 385 b 464 549 343 461 389 494 b 588 768 501 576 588 636 b 283 1025 588 904 460 1025 b 22 936 151 1025 57 964 l 22 826 b 283 913 64 853 147 913 b 432 874 378 913 410 893 b 432 653 467 842 468 686 b 268 519 378 601 317 565 b 194 319 204 460 189 388 z "},"@":{"ha":1472,"x_min":0,"x_max":0,"o":"m 1011 -144 b 726 -197 989 -151 894 -197 b 365 -71 521 -197 390 -96 b 219 363 338 -43 219 88 b 383 799 219 640 358 776 b 749 919 408 821 528 919 b 1125 801 968 919 1097 829 b 1251 400 1153 774 1265 678 b 1156 153 1242 224 1174 165 b 1058 122 1143 142 1107 122 b 983 151 1014 122 993 139 b 976 261 976 161 963 179 l 1057 696 l 953 696 l 921 613 b 750 707 883 663 843 707 b 394 367 589 707 429 572 b 633 14 357 167 479 14 b 860 129 731 14 797 67 b 1033 14 883 63 947 14 b 1374 400 1150 14 1363 150 b 751 1025 1389 764 1113 1025 b 97 363 415 1025 97 739 b 725 -303 97 -25 392 -303 b 1011 -242 890 -303 969 -258 z m 843 214 b 657 125 801 171 749 125 b 529 172 575 125 540 156 b 522 364 513 197 504 251 b 601 549 539 465 574 524 b 733 597 617 563 647 597 b 899 517 825 597 863 561 b 843 214 844 218 843 214 z "},"A":{"ha":968,"x_min":0,"x_max":0,"o":"m 156 0 l 267 292 l 692 292 l 804 0 l 940 0 l 539 1018 l 429 1018 l 28 0 z m 454 779 b 481 871 468 815 474 840 b 504 779 488 840 490 815 l 650 400 l 308 400 z "},"B":{"ha":957,"x_min":0,"x_max":0,"o":"m 156 3 b 444 -4 156 3 314 -4 b 846 296 686 -4 846 104 b 661 542 846 424 764 508 b 806 750 744 572 806 663 b 428 1018 806 924 665 1018 b 156 1011 325 1018 156 1011 z m 285 903 b 422 906 313 904 389 906 b 622 874 554 906 600 890 b 665 749 638 861 665 822 b 613 617 665 674 629 629 b 436 583 593 603 558 583 l 285 583 z m 446 110 b 285 113 394 110 285 113 l 285 475 l 446 476 b 650 439 594 476 632 453 b 704 294 667 425 704 385 b 656 149 704 203 675 164 b 446 110 640 138 606 110 z "},"C":{"ha":844,"x_min":0,"x_max":0,"o":"m 793 978 b 547 1025 739 1004 657 1025 b 76 507 290 1025 76 810 b 547 -11 76 200 286 -11 b 796 40 678 -11 742 14 b 796 147 796 40 796 147 b 551 108 758 133 682 108 b 303 189 417 108 342 149 b 224 507 269 224 224 343 b 301 829 224 675 267 793 b 550 908 340 869 418 908 b 793 872 672 908 756 886 b 793 978 793 872 793 978 z "},"D":{"ha":1011,"x_min":0,"x_max":0,"o":"m 153 0 b 436 -7 153 0 293 -7 b 935 508 717 -7 935 197 b 436 1018 935 819 725 1018 b 153 1014 293 1018 153 1014 z m 283 901 b 435 904 283 901 368 904 b 704 822 583 904 661 865 b 789 508 740 786 789 676 b 704 189 789 340 739 224 b 435 108 661 146 586 108 b 283 111 369 108 283 111 z "},"E":{"ha":828,"x_min":0,"x_max":0,"o":"m 156 0 l 744 0 l 744 114 l 286 114 l 286 469 l 678 469 l 678 581 l 286 581 l 286 900 l 738 900 l 738 1014 l 156 1014 z "},"F":{"ha":782,"x_min":0,"x_max":0,"o":"m 156 0 l 286 0 l 286 447 l 674 447 l 674 558 l 286 558 l 286 900 l 740 900 l 740 1014 l 156 1014 z "},"G":{"ha":933,"x_min":0,"x_max":0,"o":"m 729 124 b 564 107 683 115 656 107 b 303 188 426 107 343 146 b 222 507 269 222 222 343 b 301 829 222 675 265 793 b 558 910 343 869 424 910 b 818 869 685 910 779 883 l 818 975 b 556 1025 763 1001 668 1025 b 76 507 293 1025 76 810 b 556 -11 76 203 293 -11 b 843 57 729 -11 792 31 l 843 514 l 518 514 l 518 406 l 729 406 z "},"H":{"ha":1067,"x_min":0,"x_max":0,"o":"m 153 0 l 283 0 l 283 468 l 783 468 l 783 0 l 914 0 l 914 1014 l 783 1014 l 783 579 l 283 579 l 283 1014 l 153 1014 z "},"I":{"ha":456,"x_min":0,"x_max":0,"o":"m 161 0 l 294 0 b 294 1014 294 347 294 667 l 161 1014 z "},"J":{"ha":625,"x_min":0,"x_max":0,"o":"m 21 39 b 196 -11 44 21 119 -11 b 472 369 363 -11 472 115 b 472 1014 472 717 472 667 l 339 1014 l 339 378 b 304 140 339 201 324 160 b 192 106 285 121 253 106 b 21 149 125 106 42 135 z "},"K":{"ha":919,"x_min":0,"x_max":0,"o":"m 283 503 b 303 496 283 503 294 504 l 746 0 l 915 0 l 429 535 l 885 1014 l 725 1014 l 301 561 b 283 554 293 553 283 554 l 283 1014 l 153 1014 l 153 0 l 283 0 z "},"L":{"ha":761,"x_min":0,"x_max":0,"o":"m 156 0 l 758 0 l 758 114 l 288 114 l 288 1014 l 156 1014 z "},"M":{"ha":1271,"x_min":0,"x_max":0,"o":"m 1118 1014 l 1000 1014 l 733 585 b 644 436 697 529 668 478 b 556 583 621 478 590 532 l 271 1014 l 153 1014 l 153 0 l 283 0 l 283 686 b 278 822 283 722 281 772 b 354 675 304 768 331 710 l 621 274 l 665 274 l 915 672 b 992 821 939 710 965 768 b 988 688 989 772 988 722 l 988 0 l 1118 0 z "},"N":{"ha":1072,"x_min":0,"x_max":0,"o":"m 153 1014 b 153 0 153 675 153 336 l 275 0 l 275 663 b 271 800 275 710 271 800 b 342 679 271 800 310 725 l 819 0 l 919 0 l 919 1014 l 797 1014 l 797 339 b 801 217 797 293 801 217 b 731 335 801 217 763 289 l 253 1014 z "},"O":{"ha":1074,"x_min":0,"x_max":0,"o":"m 76 507 b 538 -11 76 204 286 -11 b 997 506 788 -11 997 203 b 538 1025 997 808 788 1025 b 76 507 288 1025 76 810 z m 224 507 b 296 829 224 675 261 793 b 539 908 335 868 410 908 b 779 828 667 908 740 868 b 850 507 814 792 850 675 b 779 186 850 340 815 222 b 539 107 742 149 667 107 b 296 188 407 107 335 147 b 224 507 264 222 224 343 z "},"P":{"ha":856,"x_min":0,"x_max":0,"o":"m 283 0 l 283 397 b 443 393 326 394 376 393 b 821 701 643 393 821 493 b 422 1018 821 910 660 1018 b 153 1013 306 1018 153 1013 l 153 0 z m 421 507 b 283 510 383 507 314 508 l 283 903 b 421 906 283 903 369 906 b 626 865 560 906 604 883 b 678 704 646 850 678 800 b 625 543 678 603 646 558 b 421 507 600 525 560 507 z "},"Q":{"ha":1078,"x_min":0,"x_max":0,"o":"m 985 -71 b 849 -90 985 -71 940 -90 b 725 -56 789 -90 739 -67 b 656 11 697 -33 676 -11 b 997 506 850 65 997 251 b 538 1025 997 808 788 1025 b 76 507 286 1025 76 810 b 535 -6 76 204 285 -4 b 632 -115 563 -39 586 -74 b 844 -208 693 -171 760 -208 b 985 -178 942 -208 985 -178 z m 221 507 b 296 829 221 675 261 793 b 539 910 335 868 410 910 b 779 828 667 910 739 867 b 853 507 814 792 853 675 b 779 192 853 340 815 228 b 539 108 740 154 667 108 b 296 193 407 108 335 153 b 221 507 264 228 221 343 z "},"R":{"ha":951,"x_min":0,"x_max":0,"o":"m 821 718 b 431 1018 821 926 664 1018 b 156 1013 314 1018 156 1013 l 156 0 l 285 0 l 285 424 b 443 424 289 424 322 424 l 751 0 l 910 0 b 581 436 804 139 604 406 b 821 718 714 471 821 561 z m 285 533 l 285 904 b 431 907 285 904 379 907 b 626 871 572 907 606 885 b 679 718 643 860 679 815 b 626 568 679 624 644 579 b 429 533 607 556 571 533 z "},"S":{"ha":850,"x_min":0,"x_max":0,"o":"m 76 79 b 408 -11 139 43 240 -11 b 767 286 635 -11 767 118 b 581 539 767 415 685 501 b 363 597 503 567 428 582 b 242 649 304 611 263 628 b 243 860 213 678 211 818 b 421 910 260 881 321 910 b 714 844 564 910 660 869 l 714 951 b 425 1025 663 983 564 1025 b 82 746 194 1025 82 882 b 264 500 82 624 165 538 b 482 440 342 471 415 457 b 604 383 549 424 581 408 b 603 157 635 350 638 203 b 413 107 586 135 517 107 b 76 194 250 107 133 167 z "},"T":{"ha":824,"x_min":0,"x_max":0,"o":"m 17 900 l 346 900 l 346 0 l 478 0 l 478 900 l 807 900 l 807 1014 l 17 1014 z "},"U":{"ha":1064,"x_min":0,"x_max":0,"o":"m 917 400 b 917 1014 917 747 917 667 l 783 1014 l 783 446 b 725 168 783 260 747 190 b 532 108 703 146 639 108 b 340 168 425 108 363 146 b 281 446 318 190 281 257 b 281 1014 281 793 281 667 l 147 1014 l 147 400 b 532 -11 147 158 321 -11 b 917 400 742 -11 917 158 z "},"V":{"ha":929,"x_min":0,"x_max":0,"o":"m 786 1014 l 496 239 b 472 149 482 203 479 179 b 449 239 465 179 463 203 l 154 1014 l 17 1014 l 411 -4 l 521 -4 l 915 1014 z "},"W":{"ha":1436,"x_min":0,"x_max":0,"o":"m 346 -4 l 465 -4 l 700 747 b 721 850 711 782 715 819 b 739 747 726 819 728 783 l 969 -4 l 1089 -4 l 1372 1014 l 1250 1014 l 1050 264 b 1033 160 1040 228 1036 190 b 1008 264 1028 190 1019 228 l 778 1014 l 674 1014 l 436 264 b 414 160 425 229 419 190 b 396 264 408 190 406 228 l 196 1014 l 64 1014 z "},"X":{"ha":911,"x_min":0,"x_max":0,"o":"m 17 0 l 163 0 l 408 354 b 454 426 424 376 439 401 b 497 356 468 401 482 378 l 739 0 l 894 0 l 536 521 l 883 1014 l 743 1014 l 524 701 b 464 607 501 668 479 633 b 404 701 449 633 426 668 l 192 1014 l 36 1014 l 379 515 z "},"Y":{"ha":860,"x_min":0,"x_max":0,"o":"m 439 511 b 378 633 424 546 400 594 l 157 1014 l 10 1014 l 368 403 l 368 0 l 501 0 b 501 403 501 311 501 156 l 851 1014 l 715 1014 l 500 633 b 439 511 478 596 454 547 z "},"Z":{"ha":818,"x_min":0,"x_max":0,"o":"m 783 0 l 783 114 l 194 114 b 276 218 224 147 258 192 l 771 924 l 771 1014 l 81 1014 l 81 900 l 618 900 b 539 803 586 863 556 826 l 35 86 l 35 0 z "},"[":{"ha":490,"x_min":0,"x_max":0,"o":"m 278 921 l 449 921 l 449 1028 l 153 1028 l 153 -299 l 449 -299 l 449 -192 l 278 -192 z "},"\\":{"ha":582,"x_min":0,"x_max":0,"o":"m 56 1025 l -49 1025 l 526 -211 l 631 -211 z "},"]":{"ha":490,"x_min":0,"x_max":0,"o":"m 213 -192 l 42 -192 l 42 -299 l 338 -299 l 338 1028 l 42 1028 l 42 921 l 213 921 z "},"^":{"ha":681,"x_min":0,"x_max":0,"o":"m 365 1025 b 317 1025 365 1025 317 1025 l 42 625 l 172 625 l 296 814 b 339 894 307 832 339 894 b 382 814 339 894 371 832 l 504 625 l 639 625 z "},"_":{"ha":617,"x_min":0,"x_max":0,"o":"m 0 -303 l 617 -303 l 617 -196 l 0 -196 z "},"`":{"ha":442,"x_min":0,"x_max":0,"o":"m 289 815 l 372 815 l 222 1028 l 83 1028 l 83 1004 z "},"a":{"ha":761,"x_min":0,"x_max":0,"o":"m 428 419 b 76 194 192 419 76 331 b 285 -10 76 58 175 -10 b 503 76 381 -10 450 36 b 624 -8 526 21 571 -8 b 708 13 676 -8 708 13 l 708 99 b 614 151 643 86 614 100 l 614 471 b 372 706 614 626 513 706 b 135 640 283 706 206 681 b 135 542 135 640 135 542 b 369 599 174 560 257 599 b 469 569 439 599 458 582 b 490 447 486 549 490 528 l 490 419 z m 490 168 b 306 94 460 129 374 94 b 236 110 276 94 250 99 b 207 197 222 121 207 139 b 239 293 207 256 226 282 b 458 325 275 325 349 325 l 490 325 z "},"b":{"ha":826,"x_min":0,"x_max":0,"o":"m 125 0 l 231 0 l 246 94 b 450 -11 294 40 344 -11 b 760 347 624 -11 760 138 b 450 706 760 557 628 706 b 249 607 353 706 296 660 l 249 1035 l 125 1011 z m 446 599 b 586 553 526 599 567 575 b 628 347 610 522 628 447 b 586 144 628 250 608 174 b 446 97 567 121 528 97 b 249 192 350 97 289 146 l 249 513 b 446 599 289 557 353 599 z "},"c":{"ha":638,"x_min":0,"x_max":0,"o":"m 589 136 b 401 100 550 118 486 100 b 244 153 321 100 267 125 b 199 347 222 182 199 250 b 243 547 199 447 219 517 b 401 597 265 574 314 597 b 589 563 482 597 549 579 l 589 664 b 400 706 543 686 489 706 b 67 347 217 706 67 557 b 400 -11 67 138 217 -11 b 589 35 497 -11 554 13 z "},"d":{"ha":829,"x_min":0,"x_max":0,"o":"m 704 1035 l 581 1011 l 581 610 b 379 706 533 660 475 706 b 69 347 206 706 69 557 b 379 -11 69 138 201 -11 b 585 94 483 -11 538 39 l 599 0 l 704 0 z m 383 599 b 581 514 476 599 539 560 l 581 188 b 383 97 540 142 479 97 b 243 144 306 97 263 121 b 201 347 221 174 201 250 b 243 553 201 447 219 522 b 383 599 263 575 303 599 z "},"e":{"ha":746,"x_min":0,"x_max":0,"o":"m 685 318 b 688 361 685 318 688 338 b 393 706 688 575 563 706 b 72 344 211 706 72 554 b 406 -11 72 135 219 -11 b 643 47 535 -11 615 33 l 643 146 b 411 99 597 129 538 99 b 246 150 331 99 268 122 b 204 318 225 176 207 235 z m 246 553 b 388 600 265 575 307 600 b 531 553 468 600 511 575 b 563 411 549 531 563 469 l 207 411 b 246 553 213 478 228 529 z "},"f":{"ha":558,"x_min":0,"x_max":0,"o":"m 43 590 l 182 590 l 182 0 l 307 0 l 307 590 l 538 590 l 538 694 l 306 694 l 306 731 b 332 896 306 838 314 874 b 417 926 342 907 365 926 b 547 904 483 926 526 913 l 547 1004 b 417 1035 522 1018 486 1035 b 182 732 290 1035 182 946 l 182 694 l 43 694 z "},"g":{"ha":821,"x_min":0,"x_max":0,"o":"m 381 -194 b 122 -135 258 -194 168 -154 l 122 -236 b 381 -303 175 -265 258 -303 b 697 15 554 -303 697 -197 l 697 693 l 590 693 l 576 604 b 378 706 529 654 476 706 b 69 349 204 706 69 558 b 379 -6 69 139 206 -6 b 574 89 471 -6 526 38 l 574 15 b 540 -150 574 -97 563 -128 b 381 -194 518 -172 469 -194 z m 386 103 b 243 150 300 103 263 126 b 201 349 221 179 201 251 b 243 553 201 449 219 522 b 383 599 263 575 299 599 b 574 513 475 599 535 557 l 574 176 b 386 103 535 136 475 103 z "},"h":{"ha":821,"x_min":0,"x_max":0,"o":"m 582 0 l 707 0 l 707 436 b 465 706 707 596 606 706 b 249 604 372 706 301 657 l 249 1035 l 125 1011 l 125 0 l 249 0 l 249 503 b 425 597 275 543 340 592 b 550 569 499 601 539 581 b 582 422 568 550 582 517 z "},"i":{"ha":381,"x_min":0,"x_max":0,"o":"m 128 0 l 253 0 b 253 694 253 347 253 347 l 128 694 z m 106 943 b 190 858 106 896 143 858 b 275 943 238 858 275 896 b 190 1028 275 990 238 1028 b 106 943 143 1028 106 990 z "},"j":{"ha":410,"x_min":0,"x_max":0,"o":"m 154 0 b 136 -160 154 -114 147 -144 b 46 -194 126 -172 110 -194 b -74 -168 -4 -194 -42 -181 l -74 -271 b 46 -303 -47 -285 -11 -303 b 279 -1 181 -303 279 -190 l 279 694 l 154 694 z m 132 943 b 217 858 132 896 169 858 b 301 943 264 858 301 896 b 217 1028 301 990 264 1028 b 132 943 169 1028 132 990 z "},"k":{"ha":726,"x_min":0,"x_max":0,"o":"m 247 346 b 265 338 247 346 258 346 l 557 0 l 713 0 l 383 371 l 704 694 l 550 694 l 264 397 b 247 388 256 389 247 388 l 247 1035 l 125 1011 l 125 0 l 247 0 z "},"l":{"ha":411,"x_min":0,"x_max":0,"o":"m 360 100 b 251 153 276 88 251 103 l 251 1035 l 126 1011 l 126 153 b 267 -8 126 43 193 -8 b 360 10 319 -8 360 10 z "},"m":{"ha":1204,"x_min":0,"x_max":0,"o":"m 1089 0 l 1089 436 b 867 706 1089 596 999 706 b 643 594 764 706 696 649 b 453 706 603 665 540 706 b 249 596 361 706 299 650 l 233 694 l 125 694 l 125 0 l 250 0 l 250 499 b 411 597 272 539 325 592 b 519 569 481 601 508 581 b 544 421 538 550 544 511 l 544 0 l 669 0 l 669 504 b 829 597 694 547 744 592 b 940 569 899 601 929 581 b 964 421 958 550 964 511 l 964 0 z "},"n":{"ha":818,"x_min":0,"x_max":0,"o":"m 704 436 b 463 706 704 596 603 706 b 246 599 368 706 297 653 l 229 694 l 122 694 l 122 0 l 247 0 l 247 503 b 431 597 276 543 344 592 b 547 569 504 600 536 581 b 579 422 565 550 579 513 l 579 0 l 704 0 z "},"o":{"ha":797,"x_min":0,"x_max":0,"o":"m 67 347 b 399 -11 67 139 213 -11 b 731 347 583 -11 731 139 b 399 706 731 558 586 706 b 67 347 213 706 67 556 z m 199 347 b 240 550 199 447 217 519 b 399 599 263 576 319 599 b 557 549 478 599 535 575 b 599 347 581 518 599 447 b 557 146 599 249 581 176 b 399 96 535 119 478 96 b 240 147 318 96 263 119 b 199 347 218 176 199 250 z "},"p":{"ha":826,"x_min":0,"x_max":0,"o":"m 450 -11 b 760 347 624 -11 760 138 b 451 706 760 557 625 706 b 246 606 351 706 294 657 l 231 694 l 125 694 l 125 -294 l 249 -294 l 249 81 b 450 -11 297 33 356 -11 z m 249 514 b 446 599 289 560 353 599 b 586 553 526 599 567 575 b 628 347 610 522 628 447 b 586 144 628 250 608 174 b 446 97 567 121 528 97 b 249 176 354 97 290 136 z "},"q":{"ha":825,"x_min":0,"x_max":0,"o":"m 376 -11 b 578 89 471 -11 529 36 l 578 -294 l 701 -294 l 701 694 l 596 694 l 581 604 b 375 706 532 656 475 706 b 67 347 201 706 67 557 b 376 -11 67 138 203 -11 z m 381 97 b 240 146 299 97 260 122 b 199 347 218 175 199 250 b 240 553 199 447 217 522 b 381 599 260 575 300 599 b 578 513 474 599 536 558 l 578 175 b 381 97 536 132 472 97 z "},"r":{"ha":533,"x_min":0,"x_max":0,"o":"m 250 467 b 428 582 265 508 331 582 b 506 574 464 582 493 576 l 506 700 b 456 706 500 701 482 706 b 249 576 354 706 296 639 l 232 694 l 125 694 l 125 0 l 250 0 z "},"s":{"ha":651,"x_min":0,"x_max":0,"o":"m 451 253 b 447 125 469 233 467 144 b 329 94 432 110 396 94 b 79 160 213 94 122 140 l 79 56 b 325 -11 129 26 208 -11 b 582 204 479 -11 582 82 b 314 417 582 338 463 389 b 211 450 268 425 226 435 b 215 571 194 468 194 550 b 328 600 229 585 258 600 b 544 554 438 600 500 574 l 544 654 b 328 706 500 679 435 706 b 82 503 161 706 82 596 b 343 293 82 369 203 321 b 451 253 394 283 436 272 z "},"t":{"ha":592,"x_min":0,"x_max":0,"o":"m 49 590 l 179 590 l 179 271 b 401 -11 179 74 283 -11 b 531 21 463 -11 504 7 l 531 122 b 404 100 501 110 454 100 b 326 131 353 100 336 119 b 304 272 317 143 304 178 l 304 590 l 531 590 l 531 694 l 306 694 l 306 915 l 186 892 l 186 694 l 49 694 z "},"u":{"ha":821,"x_min":0,"x_max":0,"o":"m 114 258 b 357 -11 114 99 217 -11 b 575 97 451 -11 522 42 l 589 0 l 697 0 l 697 694 l 572 694 l 572 192 b 389 97 543 153 476 103 b 271 125 315 94 282 114 b 239 272 253 144 239 182 l 239 694 l 114 694 z "},"v":{"ha":686,"x_min":0,"x_max":0,"o":"m 546 694 l 378 229 b 350 128 364 193 357 154 b 322 229 343 154 336 193 l 150 694 l 18 694 l 290 -6 l 397 -6 l 669 694 z "},"w":{"ha":1075,"x_min":0,"x_max":0,"o":"m 242 -6 l 351 -6 l 515 451 b 543 574 529 489 539 551 b 571 451 546 551 558 489 l 724 -6 l 833 -6 l 1042 694 l 928 694 l 804 242 b 779 129 794 208 786 169 b 753 242 774 169 764 208 l 603 694 l 496 694 l 338 242 b 311 129 325 207 317 169 b 289 242 304 169 299 207 l 165 694 l 35 694 z "},"x":{"ha":676,"x_min":0,"x_max":0,"o":"m 21 0 l 154 0 l 289 196 b 336 269 307 222 336 269 b 381 196 336 269 361 225 l 511 0 l 653 0 l 411 356 l 650 694 l 522 694 l 399 517 b 347 435 379 489 347 435 b 296 517 347 435 317 486 l 176 694 l 35 694 l 269 350 z "},"y":{"ha":685,"x_min":0,"x_max":0,"o":"m 301 0 b 221 -168 271 -85 247 -142 b 153 -186 213 -175 193 -186 b 33 -160 101 -186 67 -172 l 33 -265 b 153 -297 50 -275 97 -297 b 415 3 276 -297 339 -199 l 671 694 l 549 694 l 388 229 b 360 133 375 193 367 160 b 331 231 353 160 344 194 l 149 694 l 14 694 z "},"z":{"ha":636,"x_min":0,"x_max":0,"o":"m 592 0 l 592 103 l 188 103 b 268 197 218 136 250 175 l 583 604 l 583 694 l 72 694 l 72 592 l 446 592 b 364 496 415 558 381 518 l 44 88 l 44 0 z "},"{":{"ha":492,"x_min":0,"x_max":0,"o":"m 49 313 b 147 288 113 313 138 297 b 168 146 158 276 168 256 l 168 -12 b 393 -299 168 -206 238 -299 l 450 -299 l 450 -192 l 393 -192 b 313 -169 342 -192 324 -181 b 293 -10 301 -158 293 -124 l 293 147 b 192 364 293 254 263 332 b 293 582 263 397 293 475 l 293 739 b 313 899 293 853 301 888 b 393 921 324 910 342 921 l 450 921 l 450 1028 l 393 1028 b 168 742 238 1028 168 935 l 168 583 b 147 442 168 474 158 453 b 49 417 136 431 113 417 z "},"|":{"ha":406,"x_min":0,"x_max":0,"o":"m 153 -211 l 253 -211 l 253 1025 l 153 1025 z "},"}":{"ha":492,"x_min":0,"x_max":0,"o":"m 443 417 b 344 442 379 417 356 431 b 324 583 333 453 324 474 l 324 742 b 99 1028 324 935 254 1028 l 42 1028 l 42 921 l 99 921 b 179 899 150 921 168 910 b 199 739 190 888 199 853 l 199 582 b 300 364 199 475 229 397 b 199 147 229 332 199 254 l 199 -10 b 179 -169 199 -124 190 -158 b 99 -192 168 -181 150 -192 l 42 -192 l 42 -299 l 99 -299 b 324 -12 254 -299 324 -206 l 324 146 b 344 288 324 256 333 276 b 443 313 354 297 379 313 z "},"~":{"ha":788,"x_min":0,"x_max":0,"o":"m 278 499 b 510 396 364 499 385 396 b 704 589 618 396 699 474 b 585 589 704 589 585 589 b 567 500 585 554 578 511 b 510 486 556 490 540 486 b 278 589 424 486 404 589 b 83 396 169 589 89 511 b 203 396 83 396 203 396 b 221 485 203 431 210 474 b 278 499 232 494 247 499 z "},"¡":{"ha":408,"x_min":0,"x_max":0,"o":"m 254 390 l 154 390 l 126 -294 l 283 -294 z m 297 638 b 204 731 297 689 256 731 b 111 638 153 731 111 689 b 204 544 111 586 153 544 b 297 638 256 544 297 586 z "},"¢":{"ha":647,"x_min":0,"x_max":0,"o":"m 340 692 b 67 347 183 665 67 531 b 340 1 67 164 183 29 l 340 -167 l 450 -167 l 450 0 b 594 43 517 6 561 25 l 594 143 b 401 107 551 129 486 107 b 242 157 321 107 264 132 b 199 347 219 186 199 253 b 240 543 199 444 217 513 b 401 590 263 567 314 590 b 594 554 482 590 549 571 l 594 656 b 450 694 551 674 510 689 l 450 861 l 340 861 z "},"£":{"ha":771,"x_min":0,"x_max":0,"o":"m 317 521 l 317 649 b 354 875 317 825 336 857 b 476 911 374 894 415 911 b 656 868 556 911 635 882 l 656 975 b 474 1025 632 993 558 1025 b 188 657 307 1025 188 901 l 188 521 l 60 521 l 60 417 l 188 417 b 75 151 188 244 144 217 b 14 0 36 115 14 61 l 156 0 b 181 86 156 43 167 72 b 246 101 193 97 210 101 b 524 -11 361 101 381 -11 b 757 208 649 -11 743 76 l 615 208 b 593 121 615 169 607 135 b 525 103 582 110 567 103 b 249 214 411 103 388 214 b 288 265 260 225 276 243 b 314 417 301 292 311 346 l 590 417 l 590 521 z "},"¤":{"ha":790,"x_min":0,"x_max":0,"o":"m 233 514 b 272 660 233 589 251 640 b 396 699 294 681 332 699 b 519 658 460 699 497 679 b 557 514 540 639 557 589 b 519 371 557 442 540 390 b 396 332 499 351 460 332 b 272 372 332 332 294 351 b 233 514 251 392 233 443 z m 111 514 b 161 356 111 454 131 401 l 56 250 l 131 175 l 238 282 b 396 232 283 251 338 232 b 553 282 453 232 507 251 l 660 175 l 735 250 l 628 356 b 679 514 658 401 679 454 b 628 674 679 575 660 629 l 735 781 l 660 856 l 553 749 b 396 799 507 779 453 799 b 238 749 338 799 283 779 l 131 856 l 56 781 l 161 674 b 111 514 131 629 111 575 z "},"¥":{"ha":836,"x_min":0,"x_max":0,"o":"m 426 525 b 365 642 411 557 388 603 l 158 1014 l 11 1014 l 297 521 l 81 521 l 81 417 l 356 417 l 356 304 l 81 304 l 81 200 l 356 200 l 356 0 l 489 0 l 489 200 l 764 200 l 764 304 l 489 304 l 489 417 l 764 417 l 764 521 l 547 521 l 825 1014 l 689 1014 l 488 642 b 426 525 465 604 442 558 z "},"¦":{"ha":406,"x_min":0,"x_max":0,"o":"m 153 567 l 253 567 l 253 1025 l 153 1025 z m 253 -211 l 253 247 l 153 247 l 153 -211 z "},"§":{"ha":799,"x_min":0,"x_max":0,"o":"m 657 38 b 533 210 657 111 608 167 b 715 431 635 246 715 322 b 410 703 715 575 593 643 b 264 818 311 735 264 738 b 408 917 264 882 271 917 b 619 869 521 917 572 889 l 619 972 b 408 1025 572 997 518 1025 b 146 821 240 1025 146 910 b 263 650 146 747 188 693 b 83 431 158 610 83 528 b 382 156 83 267 213 214 b 535 36 486 122 535 122 b 388 -69 535 -43 515 -69 b 140 -3 268 -69 183 -22 l 140 -110 b 383 -178 192 -139 264 -178 b 657 38 538 -178 657 -81 z m 394 596 b 578 511 486 569 557 536 b 590 429 586 501 590 464 b 579 335 590 388 586 347 b 397 264 560 293 485 264 b 221 343 311 288 242 322 b 208 429 213 351 208 392 b 219 515 208 467 213 501 b 394 596 238 556 306 596 z "},"¨":{"ha":569,"x_min":0,"x_max":0,"o":"m 56 929 b 132 853 56 888 89 853 b 207 929 174 853 207 888 b 132 1006 207 971 174 1006 b 56 929 89 1006 56 971 z m 361 929 b 438 853 361 888 396 853 b 514 929 481 853 514 888 b 438 1006 514 971 481 1006 b 361 929 396 1006 361 971 z "},"©":{"ha":1232,"x_min":0,"x_max":0,"o":"m 97 507 b 617 -11 97 204 335 -11 b 1135 506 897 -11 1135 199 b 617 1025 1135 813 897 1025 b 97 507 335 1025 97 810 z m 221 507 b 324 831 221 683 283 794 b 618 921 368 869 472 921 b 910 832 763 921 865 872 b 1011 507 950 796 1011 683 b 910 182 1011 332 951 218 b 618 93 867 144 763 93 b 324 186 469 93 368 146 b 221 507 289 221 221 335 z m 799 353 b 639 319 764 338 710 319 b 515 363 574 319 536 340 b 481 507 499 386 481 428 b 515 657 481 589 496 632 b 639 697 535 678 567 697 b 799 667 706 697 763 682 l 799 765 b 636 803 754 786 713 803 b 353 507 475 803 353 668 b 636 213 353 347 475 213 b 799 254 719 213 765 236 z "},"ª":{"ha":646,"x_min":0,"x_max":0,"o":"m 358 951 b 69 767 161 951 69 878 b 242 596 69 656 151 596 b 418 665 319 596 375 633 b 521 597 438 621 478 597 b 590 614 564 597 590 614 l 590 685 b 513 726 539 675 513 686 l 513 997 b 310 1189 513 1125 432 1189 b 119 1138 238 1189 176 1169 b 119 1054 119 1138 119 1054 b 307 1101 151 1068 215 1101 b 389 1079 364 1101 379 1089 b 407 978 403 1065 407 1044 l 407 951 z m 407 740 b 261 682 382 708 317 682 b 203 694 238 682 214 685 b 179 768 192 703 179 725 b 206 847 179 813 194 838 b 383 872 235 872 293 872 l 407 872 z "},"«":{"ha":731,"x_min":0,"x_max":0,"o":"m 276 82 l 403 82 l 151 361 l 403 639 l 276 639 l 49 385 b 49 336 49 385 49 336 z m 556 82 l 682 82 l 431 361 l 682 639 l 556 639 l 328 385 b 328 336 328 385 328 336 z "},"¬":{"ha":790,"x_min":0,"x_max":0,"o":"m 83 469 l 593 469 l 593 265 l 700 265 l 700 576 l 83 576 z "},"­":{"ha":515,"x_min":0,"x_max":0,"o":"m 83 372 l 432 372 l 432 479 l 83 479 z "},"®":{"ha":1232,"x_min":0,"x_max":0,"o":"m 97 507 b 617 -11 97 204 335 -11 b 1135 506 897 -11 1135 199 b 617 1025 1135 813 897 1025 b 97 507 335 1025 97 810 z m 221 507 b 324 831 221 683 283 794 b 618 921 368 869 472 921 b 910 832 763 921 865 872 b 1011 507 950 796 1011 683 b 910 182 1011 332 951 218 b 618 93 867 144 763 93 b 324 186 469 93 368 146 b 221 507 289 221 221 335 z m 850 618 b 615 794 850 736 754 794 b 429 789 501 794 429 789 l 429 225 l 546 225 l 546 444 b 594 443 547 444 575 443 l 751 225 l 882 225 b 711 453 824 303 724 438 b 850 618 772 468 850 510 z m 546 533 l 546 704 b 614 706 546 704 585 706 b 704 690 678 706 696 697 b 728 618 713 683 728 661 b 703 549 728 578 713 556 b 613 533 694 542 676 533 z "},"°":{"ha":619,"x_min":0,"x_max":0,"o":"m 83 793 b 310 560 83 657 185 560 b 536 793 433 560 536 657 b 310 1022 536 926 433 1022 b 83 793 185 1022 83 926 z m 199 793 b 221 903 199 850 210 890 b 310 929 232 915 264 929 b 399 903 356 929 388 915 b 421 793 408 890 421 850 b 399 681 421 736 408 693 b 310 654 388 668 356 654 b 221 681 264 654 232 668 b 199 793 210 692 199 738 z "},"±":{"ha":864,"x_min":0,"x_max":0,"o":"m 779 290 l 85 290 l 85 188 l 779 188 z m 485 378 l 485 592 l 779 592 l 779 694 l 485 694 l 485 989 l 379 989 l 379 694 l 85 694 l 85 592 l 379 592 l 379 378 z "},"²":{"ha":568,"x_min":0,"x_max":0,"o":"m 471 603 l 471 694 l 218 694 b 269 740 218 694 246 717 b 458 1007 386 860 458 922 b 269 1189 458 1103 389 1189 b 101 1129 194 1189 128 1147 l 101 1042 b 271 1097 129 1058 193 1097 b 335 1079 311 1097 326 1088 b 353 1007 343 1071 353 1051 b 335 931 353 964 344 943 b 83 672 310 899 203 790 l 83 603 z "},"³":{"ha":572,"x_min":0,"x_max":0,"o":"m 110 1092 l 340 1092 b 276 1042 340 1092 301 1064 l 172 950 b 172 875 172 950 172 875 b 261 882 172 875 217 882 b 356 861 317 882 347 869 b 375 786 364 853 375 832 b 356 708 375 739 364 717 b 264 688 347 700 317 688 b 83 738 182 688 108 724 l 83 649 b 263 596 113 631 182 596 b 483 788 394 596 483 685 b 285 958 483 894 392 958 b 342 1001 285 958 318 981 b 457 1101 418 1068 457 1101 l 457 1181 l 110 1181 z "},"´":{"ha":442,"x_min":0,"x_max":0,"o":"m 358 1004 l 358 1028 l 219 1028 l 69 815 l 153 815 z "},"µ":{"ha":832,"x_min":0,"x_max":0,"o":"m 125 -294 l 250 -294 l 250 18 b 368 -11 283 0 324 -11 b 586 97 463 -11 533 42 l 600 0 l 708 0 l 708 694 l 583 694 l 583 192 b 400 97 554 153 488 103 b 282 125 326 94 293 114 b 250 272 264 144 250 182 l 250 694 l 125 694 z "},"¶":{"ha":768,"x_min":0,"x_max":0,"o":"m 379 125 b 361 -35 379 11 372 -19 b 271 -69 351 -47 335 -69 b 151 -43 221 -69 183 -56 l 151 -146 b 271 -178 178 -160 214 -178 b 504 124 406 -178 504 -65 l 504 910 l 699 910 l 699 1014 l 379 1014 b 83 735 214 1014 83 917 b 379 456 83 556 222 456 z "},"·":{"ha":339,"x_min":0,"x_max":0,"o":"m 263 417 b 169 510 263 468 221 510 b 76 417 118 510 76 468 b 169 324 76 365 118 324 b 263 417 221 324 263 365 z "},"¸":{"ha":396,"x_min":0,"x_max":0,"o":"m 83 -194 l 222 -194 l 313 0 l 238 0 z "},"¹":{"ha":518,"x_min":0,"x_max":0,"o":"m 111 603 l 428 603 l 428 694 l 322 694 l 322 1189 l 111 1110 l 111 1021 l 165 1040 b 225 1064 193 1050 225 1064 b 225 694 225 872 225 832 l 111 694 z "},"º":{"ha":708,"x_min":0,"x_max":0,"o":"m 81 892 b 354 596 81 722 203 596 b 628 892 506 596 628 722 b 354 1189 628 1065 506 1189 b 81 892 203 1189 81 1063 z m 189 892 b 225 1058 189 974 206 1033 b 354 1097 243 1079 289 1097 b 483 1058 419 1097 465 1079 b 519 892 503 1033 519 974 b 483 728 519 813 503 753 b 354 688 465 707 419 688 b 225 729 289 688 243 707 b 189 892 207 753 189 813 z "},"»":{"ha":731,"x_min":0,"x_max":0,"o":"m 682 336 b 682 385 682 336 682 385 l 454 639 l 328 639 l 579 361 l 328 82 l 454 82 z m 403 336 b 403 385 403 336 403 385 l 175 639 l 49 639 l 300 361 l 49 82 l 175 82 z "},"¼":{"ha":1118,"x_min":0,"x_max":0,"o":"m 104 0 l 222 0 l 990 1014 l 872 1014 z m 69 435 l 386 435 l 386 526 l 281 526 l 281 1021 l 69 942 l 69 853 l 124 872 b 183 896 151 882 183 896 b 183 526 183 704 183 664 l 69 526 z m 978 0 l 978 146 l 1069 146 l 1069 235 l 978 235 l 978 582 l 893 582 l 624 224 l 624 146 l 881 146 l 881 0 z m 885 435 b 881 356 885 435 881 382 l 881 235 l 813 235 b 733 231 794 235 736 231 z "},"½":{"ha":1114,"x_min":0,"x_max":0,"o":"m 104 0 l 222 0 l 990 1014 l 872 1014 z m 1044 0 l 1044 92 l 792 92 b 843 138 792 92 819 114 b 1032 404 960 257 1032 319 b 843 586 1032 500 963 586 b 675 526 768 586 701 544 l 675 439 b 844 494 703 456 767 494 b 908 476 885 494 900 485 b 926 404 917 468 926 449 b 908 328 926 361 918 340 b 657 69 883 296 776 188 l 657 0 z m 69 435 l 386 435 l 386 526 l 281 526 l 281 1021 l 69 942 l 69 853 l 124 872 b 183 896 151 882 183 896 b 183 526 183 704 183 664 l 69 526 z "},"¾":{"ha":1139,"x_min":0,"x_max":0,"o":"m 125 0 l 243 0 l 1011 1014 l 893 1014 z m 999 0 l 999 146 l 1090 146 l 1090 235 l 999 235 l 999 582 l 914 582 l 644 224 l 644 146 l 901 146 l 901 0 z m 906 435 b 901 356 906 435 901 382 l 901 235 l 833 235 b 754 231 815 235 757 231 z m 89 925 l 318 925 b 254 875 318 925 279 897 l 151 783 b 151 708 151 783 151 708 b 240 715 151 708 196 715 b 333 694 296 715 325 703 b 353 619 342 686 353 665 b 333 542 353 572 342 550 b 243 521 325 533 296 521 b 63 571 161 521 88 557 l 63 482 b 242 429 92 464 161 429 b 461 621 374 429 461 526 b 268 792 461 728 371 792 b 328 835 268 792 304 814 b 440 935 403 901 440 935 l 440 1014 l 89 1014 z "},"¿":{"ha":622,"x_min":0,"x_max":0,"o":"m 281 638 b 374 544 281 586 322 544 b 467 638 425 544 467 586 b 374 731 467 689 425 731 b 281 638 322 731 281 689 z m 321 400 b 306 307 321 400 318 335 b 158 171 279 258 233 225 b 35 -49 121 143 35 83 b 339 -306 35 -185 163 -306 b 600 -217 471 -306 565 -244 l 600 -107 b 339 -193 558 -133 475 -193 b 190 -154 244 -193 213 -174 b 190 67 156 -122 154 33 b 354 200 244 118 306 154 b 428 400 418 260 433 332 z "},"À":{"ha":968,"x_min":0,"x_max":0,"o":"m 156 0 l 267 292 l 692 292 l 804 0 l 940 0 l 539 1018 l 429 1018 l 28 0 z m 454 779 b 481 871 468 815 474 840 b 504 779 488 840 490 815 l 650 400 l 308 400 z m 475 1135 l 558 1135 l 408 1347 l 269 1347 l 269 1324 z "},"Á":{"ha":968,"x_min":0,"x_max":0,"o":"m 156 0 l 267 292 l 692 292 l 804 0 l 940 0 l 539 1018 l 429 1018 l 28 0 z m 454 779 b 481 871 468 815 474 840 b 504 779 488 840 490 815 l 650 400 l 308 400 z m 697 1324 l 697 1347 l 558 1347 l 408 1135 l 492 1135 z "},"Â":{"ha":968,"x_min":0,"x_max":0,"o":"m 156 0 l 267 292 l 692 292 l 804 0 l 940 0 l 539 1018 l 429 1018 l 28 0 z m 454 779 b 481 871 468 815 474 840 b 504 779 488 840 490 815 l 650 400 l 308 400 z m 481 1260 l 617 1135 l 700 1135 l 536 1347 l 425 1347 l 261 1135 l 344 1135 z "},"Ã":{"ha":968,"x_min":0,"x_max":0,"o":"m 156 0 l 267 292 l 692 292 l 804 0 l 940 0 l 539 1018 l 429 1018 l 28 0 z m 454 779 b 481 871 468 815 474 840 b 504 779 488 840 490 815 l 650 400 l 308 400 z m 258 1153 b 340 1153 258 1153 340 1153 b 353 1201 340 1183 349 1197 b 396 1213 357 1206 365 1213 b 557 1153 461 1213 476 1153 b 703 1314 644 1153 703 1225 b 621 1314 703 1314 621 1314 b 608 1265 621 1283 613 1269 b 564 1254 604 1261 594 1254 b 403 1314 497 1254 482 1314 b 258 1153 315 1314 258 1242 z "},"Ä":{"ha":968,"x_min":0,"x_max":0,"o":"m 243 1186 b 324 1111 243 1146 278 1111 b 401 1186 367 1111 401 1146 b 324 1263 401 1226 367 1263 b 243 1186 278 1263 243 1226 z m 563 1186 b 643 1111 563 1146 600 1111 b 724 1186 689 1111 724 1146 b 643 1263 724 1226 689 1263 b 563 1186 600 1263 563 1226 z m 156 0 l 267 292 l 692 292 l 804 0 l 940 0 l 539 1018 l 429 1018 l 28 0 z m 454 779 b 481 871 468 815 474 840 b 504 779 488 840 490 815 l 650 400 l 308 400 z "},"Å":{"ha":968,"x_min":0,"x_max":0,"o":"m 364 1224 b 485 1104 364 1154 421 1104 b 604 1224 547 1104 604 1154 b 485 1340 604 1290 547 1340 b 364 1224 421 1340 364 1290 z m 435 1224 b 446 1268 435 1246 440 1263 b 485 1279 451 1274 465 1279 b 524 1268 504 1279 518 1274 b 535 1224 529 1263 535 1246 b 524 1176 535 1200 529 1182 b 485 1165 518 1171 504 1165 b 446 1176 465 1165 451 1171 b 435 1224 440 1182 435 1200 z m 156 0 l 267 292 l 692 292 l 804 0 l 940 0 l 539 1018 l 429 1018 l 28 0 z m 454 779 b 481 871 468 815 474 840 b 504 779 488 840 490 815 l 650 400 l 308 400 z "},"Æ":{"ha":1254,"x_min":0,"x_max":0,"o":"m 6 0 l 142 0 l 294 292 l 599 292 l 599 0 l 1171 0 l 1171 114 l 728 114 l 728 469 l 1106 469 l 1106 581 l 728 581 l 728 900 l 1164 900 l 1164 1014 l 550 1014 z m 544 768 b 599 890 560 799 589 863 l 599 400 l 351 400 z "},"Ç":{"ha":844,"x_min":0,"x_max":0,"o":"m 793 978 b 547 1025 739 1004 657 1025 b 76 507 290 1025 76 810 b 514 -10 76 213 268 6 l 369 -194 l 508 -194 l 593 -10 b 796 40 693 -4 749 17 l 796 147 b 551 108 758 133 682 108 b 303 189 417 108 342 149 b 224 507 269 224 224 343 b 301 829 224 675 267 793 b 550 908 340 869 418 908 b 793 872 672 908 756 886 l 793 978 z "},"È":{"ha":828,"x_min":0,"x_max":0,"o":"m 156 0 l 744 0 l 744 114 l 286 114 l 286 469 l 678 469 l 678 581 l 286 581 l 286 900 l 738 900 l 738 1014 l 156 1014 z m 489 1107 l 572 1107 l 422 1319 l 283 1319 l 283 1296 z "},"É":{"ha":828,"x_min":0,"x_max":0,"o":"m 156 0 l 744 0 l 744 114 l 286 114 l 286 469 l 678 469 l 678 581 l 286 581 l 286 900 l 738 900 l 738 1014 l 156 1014 z m 693 1296 l 693 1319 l 554 1319 l 404 1107 l 488 1107 z "},"Ê":{"ha":828,"x_min":0,"x_max":0,"o":"m 156 0 l 744 0 l 744 114 l 286 114 l 286 469 l 678 469 l 678 581 l 286 581 l 286 900 l 738 900 l 738 1014 l 156 1014 z m 454 1232 l 590 1107 l 674 1107 l 510 1319 l 399 1319 l 235 1107 l 318 1107 z "},"Ë":{"ha":828,"x_min":0,"x_max":0,"o":"m 242 1186 b 322 1111 242 1146 276 1111 b 400 1186 365 1111 400 1146 b 322 1263 400 1226 365 1263 b 242 1186 276 1263 242 1226 z m 561 1186 b 642 1111 561 1146 599 1111 b 722 1186 688 1111 722 1146 b 642 1263 722 1226 688 1263 b 561 1186 599 1263 561 1226 z m 156 0 l 744 0 l 744 114 l 286 114 l 286 469 l 678 469 l 678 581 l 286 581 l 286 900 l 738 900 l 738 1014 l 156 1014 z "},"Ì":{"ha":456,"x_min":0,"x_max":0,"o":"m 161 0 l 294 0 b 294 1014 294 347 294 667 l 161 1014 z m 222 1135 l 306 1135 l 156 1347 l 17 1347 l 17 1324 z "},"Í":{"ha":456,"x_min":0,"x_max":0,"o":"m 161 0 l 294 0 b 294 1014 294 347 294 667 l 161 1014 z m 439 1324 l 439 1347 l 300 1347 l 150 1135 l 233 1135 z "},"Î":{"ha":456,"x_min":0,"x_max":0,"o":"m 161 0 l 294 0 b 294 1014 294 347 294 667 l 161 1014 z m 228 1260 l 364 1135 l 447 1135 l 283 1347 l 172 1347 l 8 1135 l 92 1135 z "},"Ï":{"ha":456,"x_min":0,"x_max":0,"o":"m 1 1186 b 82 1111 1 1146 36 1111 b 160 1186 125 1111 160 1146 b 82 1263 160 1226 125 1263 b 1 1186 36 1263 1 1226 z m 293 1186 b 374 1111 293 1146 331 1111 b 454 1186 419 1111 454 1146 b 374 1263 454 1226 419 1263 b 293 1186 331 1263 293 1226 z m 161 0 l 294 0 b 294 1014 294 347 294 667 l 161 1014 z "},"Ð":{"ha":1025,"x_min":0,"x_max":0,"o":"m 167 572 l 36 572 l 36 468 l 167 468 l 167 0 b 450 -7 167 0 307 -7 b 949 508 731 -7 949 197 b 450 1018 949 819 739 1018 b 167 1014 307 1018 167 1014 z m 297 572 l 297 901 b 449 904 297 901 382 904 b 718 822 597 904 675 865 b 803 508 754 786 803 676 b 718 189 803 340 753 224 b 449 108 675 146 600 108 b 297 111 383 108 297 111 l 297 468 l 542 468 l 542 572 z "},"Ñ":{"ha":1072,"x_min":0,"x_max":0,"o":"m 153 1014 b 153 0 153 675 153 336 l 275 0 l 275 663 b 271 800 275 710 271 800 b 342 679 271 800 310 725 l 819 0 l 919 0 l 919 1014 l 797 1014 l 797 339 b 801 217 797 293 801 217 b 731 335 801 217 763 289 l 253 1014 z m 328 1111 b 410 1111 328 1111 410 1111 b 422 1160 410 1142 418 1156 b 465 1171 426 1164 435 1171 b 626 1111 531 1171 546 1111 b 772 1272 714 1111 772 1183 b 690 1272 772 1272 690 1272 b 678 1224 690 1242 682 1228 b 633 1213 674 1219 664 1213 b 472 1272 567 1213 551 1272 b 328 1111 385 1272 328 1200 z "},"Ò":{"ha":1074,"x_min":0,"x_max":0,"o":"m 76 507 b 538 -11 76 204 286 -11 b 997 506 788 -11 997 203 b 538 1025 997 808 788 1025 b 76 507 288 1025 76 810 z m 224 507 b 296 829 224 675 261 793 b 539 908 335 868 410 908 b 779 828 667 908 740 868 b 850 507 814 792 850 675 b 779 186 850 340 815 222 b 539 107 742 149 667 107 b 296 188 407 107 335 147 b 224 507 264 222 224 343 z m 539 1107 l 622 1107 l 472 1319 l 333 1319 l 333 1296 z "},"Ó":{"ha":1074,"x_min":0,"x_max":0,"o":"m 76 507 b 538 -11 76 204 286 -11 b 997 506 788 -11 997 203 b 538 1025 997 808 788 1025 b 76 507 288 1025 76 810 z m 224 507 b 296 829 224 675 261 793 b 539 908 335 868 410 908 b 779 828 667 908 740 868 b 850 507 814 792 850 675 b 779 186 850 340 815 222 b 539 107 742 149 667 107 b 296 188 407 107 335 147 b 224 507 264 222 224 343 z m 739 1296 l 739 1319 l 600 1319 l 450 1107 l 533 1107 z "},"Ô":{"ha":1074,"x_min":0,"x_max":0,"o":"m 76 507 b 538 -11 76 204 286 -11 b 997 506 788 -11 997 203 b 538 1025 997 808 788 1025 b 76 507 288 1025 76 810 z m 224 507 b 296 829 224 675 261 793 b 539 908 335 868 410 908 b 779 828 667 908 740 868 b 850 507 814 792 850 675 b 779 186 850 340 815 222 b 539 107 742 149 667 107 b 296 188 407 107 335 147 b 224 507 264 222 224 343 z m 536 1232 l 672 1107 l 756 1107 l 592 1319 l 481 1319 l 317 1107 l 400 1107 z "},"Õ":{"ha":1074,"x_min":0,"x_max":0,"o":"m 76 507 b 538 -11 76 204 286 -11 b 997 506 788 -11 997 203 b 538 1025 997 808 788 1025 b 76 507 288 1025 76 810 z m 224 507 b 296 829 224 675 261 793 b 539 908 335 868 410 908 b 779 828 667 908 740 868 b 850 507 814 792 850 675 b 779 186 850 340 815 222 b 539 107 742 149 667 107 b 296 188 407 107 335 147 b 224 507 264 222 224 343 z m 325 1111 b 407 1111 325 1111 407 1111 b 419 1160 407 1142 415 1156 b 463 1171 424 1164 432 1171 b 624 1111 528 1171 543 1111 b 769 1272 711 1111 769 1183 b 688 1272 769 1272 688 1272 b 675 1224 688 1242 679 1228 b 631 1213 671 1219 661 1213 b 469 1272 564 1213 549 1272 b 325 1111 382 1272 325 1200 z "},"Ö":{"ha":1074,"x_min":0,"x_max":0,"o":"m 296 1186 b 376 1111 296 1146 331 1111 b 454 1186 419 1111 454 1146 b 376 1263 454 1226 419 1263 b 296 1186 331 1263 296 1226 z m 615 1186 b 696 1111 615 1146 653 1111 b 776 1186 742 1111 776 1146 b 696 1263 776 1226 742 1263 b 615 1186 653 1263 615 1226 z m 76 507 b 538 -11 76 204 286 -11 b 997 506 788 -11 997 203 b 538 1025 997 808 788 1025 b 76 507 288 1025 76 810 z m 224 507 b 296 829 224 675 261 793 b 539 908 335 868 410 908 b 779 828 667 908 740 868 b 850 507 814 792 850 675 b 779 186 850 340 815 222 b 539 107 742 149 667 107 b 296 188 407 107 335 147 b 224 507 264 222 224 343 z "},"×":{"ha":803,"x_min":0,"x_max":0,"o":"m 118 306 l 193 231 l 401 439 l 610 231 l 685 306 l 475 515 l 685 725 l 610 800 l 401 592 l 193 800 l 118 725 l 328 515 z "},"Ø":{"ha":1088,"x_min":0,"x_max":0,"o":"m 810 931 b 544 1025 733 990 642 1025 b 83 507 294 1025 83 810 b 213 143 83 360 133 235 l 104 0 l 217 0 l 278 81 b 544 -11 354 22 447 -11 b 1004 506 794 -11 1004 203 b 875 869 1004 651 954 778 l 985 1014 l 872 1014 z m 231 507 b 303 829 231 675 268 793 b 546 908 342 868 417 908 b 753 856 643 908 710 885 l 278 229 b 231 507 253 285 231 383 z m 546 107 b 338 158 446 107 381 131 l 811 786 b 857 507 836 731 857 633 b 786 186 857 340 822 222 b 546 107 749 149 674 107 z "},"Ù":{"ha":1064,"x_min":0,"x_max":0,"o":"m 917 400 b 917 1014 917 747 917 667 l 783 1014 l 783 446 b 725 168 783 260 747 190 b 532 108 703 146 639 108 b 340 168 425 108 363 146 b 281 446 318 190 281 257 b 281 1014 281 793 281 667 l 147 1014 l 147 400 b 532 -11 147 158 321 -11 b 917 400 742 -11 917 158 z m 538 1107 l 621 1107 l 471 1319 l 332 1319 l 332 1296 z "},"Ú":{"ha":1064,"x_min":0,"x_max":0,"o":"m 917 400 b 917 1014 917 747 917 667 l 783 1014 l 783 446 b 725 168 783 260 747 190 b 532 108 703 146 639 108 b 340 168 425 108 363 146 b 281 446 318 190 281 257 b 281 1014 281 793 281 667 l 147 1014 l 147 400 b 532 -11 147 158 321 -11 b 917 400 742 -11 917 158 z m 746 1296 l 746 1319 l 607 1319 l 457 1107 l 540 1107 z "},"Û":{"ha":1064,"x_min":0,"x_max":0,"o":"m 917 400 b 917 1014 917 747 917 667 l 783 1014 l 783 446 b 725 168 783 260 747 190 b 532 108 703 146 639 108 b 340 168 425 108 363 146 b 281 446 318 190 281 257 b 281 1014 281 793 281 667 l 147 1014 l 147 400 b 532 -11 147 158 321 -11 b 917 400 742 -11 917 158 z m 532 1232 l 668 1107 l 751 1107 l 588 1319 l 476 1319 l 313 1107 l 396 1107 z "},"Ü":{"ha":1064,"x_min":0,"x_max":0,"o":"m 293 1186 b 374 1111 293 1146 328 1111 b 451 1186 417 1111 451 1146 b 374 1263 451 1226 417 1263 b 293 1186 328 1263 293 1226 z m 613 1186 b 693 1111 613 1146 650 1111 b 774 1186 739 1111 774 1146 b 693 1263 774 1226 739 1263 b 613 1186 650 1263 613 1226 z m 917 400 b 917 1014 917 747 917 667 l 783 1014 l 783 446 b 725 168 783 260 747 190 b 532 108 703 146 639 108 b 340 168 425 108 363 146 b 281 446 318 190 281 257 b 281 1014 281 793 281 667 l 147 1014 l 147 400 b 532 -11 147 158 321 -11 b 917 400 742 -11 917 158 z "},"Ý":{"ha":860,"x_min":0,"x_max":0,"o":"m 439 511 b 378 633 424 546 400 594 l 157 1014 l 10 1014 l 368 403 l 368 0 l 501 0 b 501 403 501 311 501 156 l 851 1014 l 715 1014 l 500 633 b 439 511 478 596 454 547 z m 644 1296 l 644 1319 l 506 1319 l 356 1107 l 439 1107 z "},"Þ":{"ha":854,"x_min":0,"x_max":0,"o":"m 153 0 l 283 0 l 283 235 b 443 231 326 232 376 231 b 819 531 643 231 819 331 b 422 839 819 731 660 839 b 283 836 378 839 283 836 l 283 1028 l 153 1028 z m 421 344 b 283 347 383 344 314 346 l 283 724 b 421 726 283 724 369 726 b 626 688 560 726 604 706 b 676 533 646 674 676 625 b 625 379 676 436 646 393 b 421 344 600 361 560 344 z "},"ß":{"ha":889,"x_min":0,"x_max":0,"o":"m 183 590 l 183 0 l 308 0 l 307 694 b 343 889 307 806 322 868 b 488 928 357 903 397 928 b 615 892 567 928 601 906 b 615 772 635 872 635 792 b 535 710 601 758 567 732 b 436 546 475 667 436 628 b 639 342 436 425 536 389 b 721 290 678 324 703 308 b 718 128 735 275 735 144 b 607 94 704 114 669 94 b 411 149 511 94 449 131 l 411 46 b 608 -11 456 19 514 -11 b 847 217 744 -11 847 94 b 643 460 847 350 767 403 b 558 510 597 481 572 494 b 558 597 547 521 547 585 b 629 651 569 608 586 621 b 751 828 700 700 751 738 b 488 1035 751 921 635 1035 b 183 694 294 1035 183 897 l 44 694 l 44 590 z "},"à":{"ha":761,"x_min":0,"x_max":0,"o":"m 428 419 b 76 194 192 419 76 331 b 285 -10 76 58 175 -10 b 503 76 381 -10 450 36 b 624 -8 526 21 571 -8 b 708 13 676 -8 708 13 l 708 99 b 614 151 643 86 614 100 l 614 471 b 372 706 614 626 513 706 b 135 640 283 706 206 681 b 135 542 135 640 135 542 b 369 599 174 560 257 599 b 469 569 439 599 458 582 b 490 447 486 549 490 528 l 490 419 z m 490 168 b 306 94 460 129 374 94 b 236 110 276 94 250 99 b 207 197 222 121 207 139 b 239 293 207 256 226 282 b 458 325 275 325 349 325 l 490 325 z m 388 815 l 471 815 l 321 1028 l 182 1028 l 182 1004 z "},"á":{"ha":761,"x_min":0,"x_max":0,"o":"m 428 419 b 76 194 192 419 76 331 b 285 -10 76 58 175 -10 b 503 76 381 -10 450 36 b 624 -8 526 21 571 -8 b 708 13 676 -8 708 13 l 708 99 b 614 151 643 86 614 100 l 614 471 b 372 706 614 626 513 706 b 135 640 283 706 206 681 b 135 542 135 640 135 542 b 369 599 174 560 257 599 b 469 569 439 599 458 582 b 490 447 486 549 490 528 l 490 419 z m 490 168 b 306 94 460 129 374 94 b 236 110 276 94 250 99 b 207 197 222 121 207 139 b 239 293 207 256 226 282 b 458 325 275 325 349 325 l 490 325 z m 588 1004 l 588 1028 l 449 1028 l 299 815 l 382 815 z "},"â":{"ha":761,"x_min":0,"x_max":0,"o":"m 428 419 b 76 194 192 419 76 331 b 285 -10 76 58 175 -10 b 503 76 381 -10 450 36 b 624 -8 526 21 571 -8 b 708 13 676 -8 708 13 l 708 99 b 614 151 643 86 614 100 l 614 471 b 372 706 614 626 513 706 b 135 640 283 706 206 681 b 135 542 135 640 135 542 b 369 599 174 560 257 599 b 469 569 439 599 458 582 b 490 447 486 549 490 528 l 490 419 z m 490 168 b 306 94 460 129 374 94 b 236 110 276 94 250 99 b 207 197 222 121 207 139 b 239 293 207 256 226 282 b 458 325 275 325 349 325 l 490 325 z m 378 940 l 514 815 l 597 815 l 433 1028 l 322 1028 l 158 815 l 242 815 z "},"ã":{"ha":761,"x_min":0,"x_max":0,"o":"m 428 419 b 76 194 192 419 76 331 b 285 -10 76 58 175 -10 b 503 76 381 -10 450 36 b 624 -8 526 21 571 -8 b 708 13 676 -8 708 13 l 708 99 b 614 151 643 86 614 100 l 614 471 b 372 706 614 626 513 706 b 135 640 283 706 206 681 b 135 542 135 640 135 542 b 369 599 174 560 257 599 b 469 569 439 599 458 582 b 490 447 486 549 490 528 l 490 419 z m 490 168 b 306 94 460 129 374 94 b 236 110 276 94 250 99 b 207 197 222 121 207 139 b 239 293 207 256 226 282 b 458 325 275 325 349 325 l 490 325 z m 153 847 b 235 847 153 847 235 847 b 247 896 235 878 243 892 b 290 907 251 900 260 907 b 451 847 356 907 371 847 b 597 1008 539 847 597 919 b 515 1008 597 1008 515 1008 b 503 960 515 978 507 964 b 458 949 499 956 489 949 b 297 1008 392 949 376 1008 b 153 847 210 1008 153 936 z "},"ä":{"ha":761,"x_min":0,"x_max":0,"o":"m 428 419 b 76 194 192 419 76 331 b 285 -10 76 58 175 -10 b 503 76 381 -10 450 36 b 624 -8 526 21 571 -8 b 708 13 676 -8 708 13 l 708 99 b 614 151 643 86 614 100 l 614 471 b 372 706 614 626 513 706 b 135 640 283 706 206 681 b 135 542 135 640 135 542 b 369 599 174 560 257 599 b 469 569 439 599 458 582 b 490 447 486 549 490 528 l 490 419 z m 490 168 b 306 94 460 129 374 94 b 236 110 276 94 250 99 b 207 197 222 121 207 139 b 239 293 207 256 226 282 b 458 325 275 325 349 325 l 490 325 z m 151 929 b 228 853 151 888 185 853 b 303 929 269 853 303 888 b 228 1006 303 971 269 1006 b 151 929 185 1006 151 971 z m 457 929 b 533 853 457 888 492 853 b 610 929 576 853 610 888 b 533 1006 610 971 576 1006 b 457 929 492 1006 457 971 z "},"å":{"ha":761,"x_min":0,"x_max":0,"o":"m 257 935 b 378 815 257 865 314 815 b 497 935 440 815 497 865 b 378 1051 497 1001 440 1051 b 257 935 314 1051 257 1001 z m 328 935 b 339 979 328 957 333 974 b 378 990 344 985 358 990 b 417 979 397 990 411 985 b 428 935 422 974 428 957 b 417 888 428 911 422 893 b 378 876 411 882 397 876 b 339 888 358 876 344 882 b 328 935 333 893 328 911 z m 428 419 b 76 194 192 419 76 331 b 285 -10 76 58 175 -10 b 503 76 381 -10 450 36 b 624 -8 526 21 571 -8 b 708 13 676 -8 708 13 l 708 99 b 614 151 643 86 614 100 l 614 471 b 372 706 614 626 513 706 b 135 640 283 706 206 681 b 135 542 135 640 135 542 b 369 599 174 560 257 599 b 469 569 439 599 458 582 b 490 447 486 549 490 528 l 490 419 z m 490 168 b 306 94 460 129 374 94 b 236 110 276 94 250 99 b 207 197 222 121 207 139 b 239 293 207 256 226 282 b 458 325 275 325 349 325 l 490 325 z "},"æ":{"ha":1150,"x_min":0,"x_max":0,"o":"m 575 596 b 372 706 533 661 463 706 b 135 640 283 706 206 681 l 135 542 b 369 599 174 560 257 599 b 469 569 439 599 458 582 b 492 447 486 547 492 529 l 492 417 l 428 417 b 76 194 192 417 76 331 b 285 -10 76 58 175 -10 b 564 108 408 -10 499 40 b 813 -11 621 33 707 -11 b 1046 47 942 -11 1018 33 l 1046 146 b 818 99 1000 129 944 99 b 657 150 738 99 679 122 b 614 318 636 176 617 235 l 1085 318 b 1088 361 1085 318 1088 338 b 801 706 1088 575 975 706 b 575 596 708 706 626 660 z m 239 292 b 444 322 275 324 350 322 l 489 322 b 515 182 490 269 499 224 b 306 94 458 124 376 94 b 236 110 276 94 250 99 b 207 197 222 121 207 139 b 239 292 207 256 226 281 z m 656 553 b 794 600 675 575 714 600 b 935 553 875 600 915 575 b 963 411 953 531 963 469 l 614 411 b 656 553 617 481 638 529 z "},"ç":{"ha":638,"x_min":0,"x_max":0,"o":"m 589 136 b 401 100 550 118 486 100 b 244 153 321 100 267 125 b 199 347 222 182 199 250 b 243 547 199 447 219 517 b 401 597 265 574 314 597 b 589 563 482 597 549 579 l 589 664 b 400 706 543 686 489 706 b 67 347 217 706 67 557 b 361 -8 67 153 196 11 l 214 -194 l 353 -194 l 439 -8 b 589 35 514 -3 558 15 z "},"è":{"ha":746,"x_min":0,"x_max":0,"o":"m 685 318 b 688 361 685 318 688 338 b 393 706 688 575 563 706 b 72 344 211 706 72 554 b 406 -11 72 135 219 -11 b 643 47 535 -11 615 33 l 643 146 b 411 99 597 129 538 99 b 246 150 331 99 268 122 b 204 318 225 176 207 235 z m 246 553 b 388 600 265 575 307 600 b 531 553 468 600 511 575 b 563 411 549 531 563 469 l 207 411 b 246 553 213 478 228 529 z m 394 815 l 478 815 l 328 1028 l 189 1028 l 189 1004 z "},"é":{"ha":746,"x_min":0,"x_max":0,"o":"m 685 318 b 688 361 685 318 688 338 b 393 706 688 575 563 706 b 72 344 211 706 72 554 b 406 -11 72 135 219 -11 b 643 47 535 -11 615 33 l 643 146 b 411 99 597 129 538 99 b 246 150 331 99 268 122 b 204 318 225 176 207 235 z m 246 553 b 388 600 265 575 307 600 b 531 553 468 600 511 575 b 563 411 549 531 563 469 l 207 411 b 246 553 213 478 228 529 z m 596 1004 l 596 1028 l 457 1028 l 307 815 l 390 815 z "},"ê":{"ha":746,"x_min":0,"x_max":0,"o":"m 685 318 b 688 361 685 318 688 338 b 393 706 688 575 563 706 b 72 344 211 706 72 554 b 406 -11 72 135 219 -11 b 643 47 535 -11 615 33 l 643 146 b 411 99 597 129 538 99 b 246 150 331 99 268 122 b 204 318 225 176 207 235 z m 246 553 b 388 600 265 575 307 600 b 531 553 468 600 511 575 b 563 411 549 531 563 469 l 207 411 b 246 553 213 478 228 529 z m 393 940 l 529 815 l 613 815 l 449 1028 l 338 1028 l 174 815 l 257 815 z "},"ë":{"ha":746,"x_min":0,"x_max":0,"o":"m 685 318 b 688 361 685 318 688 338 b 393 706 688 575 563 706 b 72 344 211 706 72 554 b 406 -11 72 135 219 -11 b 643 47 535 -11 615 33 l 643 146 b 411 99 597 129 538 99 b 246 150 331 99 268 122 b 204 318 225 176 207 235 z m 246 553 b 388 600 265 575 307 600 b 531 553 468 600 511 575 b 563 411 549 531 563 469 l 207 411 b 246 553 213 478 228 529 z m 169 929 b 246 853 169 888 203 853 b 321 929 288 853 321 888 b 246 1006 321 971 288 1006 b 169 929 203 1006 169 971 z m 475 929 b 551 853 475 888 510 853 b 628 929 594 853 628 888 b 551 1006 628 971 594 1006 b 475 929 510 1006 475 971 z "},"ì":{"ha":381,"x_min":0,"x_max":0,"o":"m 128 0 l 253 0 b 253 694 253 347 253 347 l 128 694 z m 185 815 l 268 815 l 118 1028 l -21 1028 l -21 1004 z "},"í":{"ha":381,"x_min":0,"x_max":0,"o":"m 128 0 l 253 0 b 253 694 253 347 253 347 l 128 694 z m 404 1004 l 404 1028 l 265 1028 l 115 815 l 199 815 z "},"î":{"ha":381,"x_min":0,"x_max":0,"o":"m 128 0 l 253 0 b 253 694 253 347 253 347 l 128 694 z m 190 940 l 326 815 l 410 815 l 246 1028 l 135 1028 l -29 815 l 54 815 z "},"ï":{"ha":381,"x_min":0,"x_max":0,"o":"m 128 0 l 253 0 b 253 694 253 347 253 347 l 128 694 z m -39 929 b 38 853 -39 888 -6 853 b 113 929 79 853 113 888 b 38 1006 113 971 79 1006 b -39 929 -6 1006 -39 971 z m 267 929 b 343 853 267 888 301 853 b 419 929 386 853 419 888 b 343 1006 419 971 386 1006 b 267 929 301 1006 267 971 z "},"ð":{"ha":799,"x_min":0,"x_max":0,"o":"m 296 739 l 525 804 b 585 572 550 751 576 676 b 379 694 550 638 481 694 b 67 342 206 694 67 554 b 390 -11 67 142 211 -11 b 722 419 574 -11 722 168 b 625 833 721 582 683 725 l 724 861 l 688 944 l 575 913 b 308 1056 508 999 418 1049 l 258 949 b 479 885 404 949 446 922 l 260 822 z m 538 151 b 390 96 522 133 472 96 b 239 147 313 96 261 122 b 199 342 215 174 199 243 b 239 542 199 442 217 515 b 385 589 261 567 311 589 b 529 536 474 589 508 557 b 582 350 551 514 582 469 b 538 151 582 269 565 185 z "},"ñ":{"ha":818,"x_min":0,"x_max":0,"o":"m 704 436 b 463 706 704 596 603 706 b 246 599 368 706 297 653 l 229 694 l 122 694 l 122 0 l 247 0 l 247 503 b 431 597 276 543 344 592 b 547 569 504 600 536 581 b 579 422 565 550 579 513 l 579 0 l 704 0 z m 197 847 b 279 847 197 847 279 847 b 292 896 279 878 288 892 b 335 907 296 900 304 907 b 496 847 400 907 415 847 b 642 1008 583 847 642 919 b 560 1008 642 1008 560 1008 b 547 960 560 978 551 964 b 503 949 543 956 533 949 b 342 1008 436 949 421 1008 b 197 847 254 1008 197 936 z "},"ò":{"ha":797,"x_min":0,"x_max":0,"o":"m 67 347 b 399 -11 67 139 213 -11 b 731 347 583 -11 731 139 b 399 706 731 558 586 706 b 67 347 213 706 67 556 z m 199 347 b 240 550 199 447 217 519 b 399 599 263 576 319 599 b 557 549 478 599 535 575 b 599 347 581 518 599 447 b 557 146 599 249 581 176 b 399 96 535 119 478 96 b 240 147 318 96 263 119 b 199 347 218 176 199 250 z m 408 815 l 492 815 l 342 1028 l 203 1028 l 203 1004 z "},"ó":{"ha":797,"x_min":0,"x_max":0,"o":"m 67 347 b 399 -11 67 139 213 -11 b 731 347 583 -11 731 139 b 399 706 731 558 586 706 b 67 347 213 706 67 556 z m 199 347 b 240 550 199 447 217 519 b 399 599 263 576 319 599 b 557 549 478 599 535 575 b 599 347 581 518 599 447 b 557 146 599 249 581 176 b 399 96 535 119 478 96 b 240 147 318 96 263 119 b 199 347 218 176 199 250 z m 603 1004 l 603 1028 l 464 1028 l 314 815 l 397 815 z "},"ô":{"ha":797,"x_min":0,"x_max":0,"o":"m 67 347 b 399 -11 67 139 213 -11 b 731 347 583 -11 731 139 b 399 706 731 558 586 706 b 67 347 213 706 67 556 z m 199 347 b 240 550 199 447 217 519 b 399 599 263 576 319 599 b 557 549 478 599 535 575 b 599 347 581 518 599 447 b 557 146 599 249 581 176 b 399 96 535 119 478 96 b 240 147 318 96 263 119 b 199 347 218 176 199 250 z m 399 940 l 535 815 l 618 815 l 454 1028 l 343 1028 l 179 815 l 263 815 z "},"õ":{"ha":797,"x_min":0,"x_max":0,"o":"m 67 347 b 399 -11 67 139 213 -11 b 731 347 583 -11 731 139 b 399 706 731 558 586 706 b 67 347 213 706 67 556 z m 199 347 b 240 550 199 447 217 519 b 399 599 263 576 319 599 b 557 549 478 599 535 575 b 599 347 581 518 599 447 b 557 146 599 249 581 176 b 399 96 535 119 478 96 b 240 147 318 96 263 119 b 199 347 218 176 199 250 z m 179 847 b 261 847 179 847 261 847 b 274 896 261 878 269 892 b 317 907 278 900 286 907 b 478 847 382 907 397 847 b 624 1008 565 847 624 919 b 542 1008 624 1008 542 1008 b 529 960 542 978 533 964 b 485 949 525 956 515 949 b 324 1008 418 949 403 1008 b 179 847 236 1008 179 936 z "},"ö":{"ha":797,"x_min":0,"x_max":0,"o":"m 67 347 b 399 -11 67 139 213 -11 b 731 347 583 -11 731 139 b 399 706 731 558 586 706 b 67 347 213 706 67 556 z m 199 347 b 240 550 199 447 217 519 b 399 599 263 576 319 599 b 557 549 478 599 535 575 b 599 347 581 518 599 447 b 557 146 599 249 581 176 b 399 96 535 119 478 96 b 240 147 318 96 263 119 b 199 347 218 176 199 250 z m 169 929 b 246 853 169 888 203 853 b 321 929 288 853 321 888 b 246 1006 321 971 288 1006 b 169 929 203 1006 169 971 z m 475 929 b 551 853 475 888 510 853 b 628 929 594 853 628 888 b 551 1006 628 971 594 1006 b 475 929 510 1006 475 971 z "},"÷":{"ha":742,"x_min":0,"x_max":0,"o":"m 63 467 l 679 467 l 679 571 l 63 571 z m 464 251 b 371 344 464 303 422 344 b 278 251 319 344 278 303 b 371 158 278 200 319 158 b 464 251 422 158 464 200 z m 464 788 b 371 881 464 839 422 881 b 278 788 319 881 278 839 b 371 694 278 736 319 694 b 464 788 422 694 464 736 z "},"ø":{"ha":808,"x_min":0,"x_max":0,"o":"m 72 347 b 161 101 72 250 106 164 l 85 0 l 197 0 l 229 42 b 404 -11 279 8 340 -11 b 736 347 589 -11 736 139 b 647 593 736 446 703 531 l 724 694 l 611 694 l 579 653 b 404 706 528 686 468 706 b 72 347 218 706 72 556 z m 204 347 b 246 550 204 447 222 519 b 404 599 268 576 325 599 b 522 578 453 599 493 590 l 226 188 b 204 347 213 225 204 281 z m 404 96 b 286 117 354 96 315 104 l 583 508 b 604 347 596 469 604 415 b 563 146 604 249 586 176 b 404 96 540 119 483 96 z "},"ù":{"ha":821,"x_min":0,"x_max":0,"o":"m 114 258 b 357 -11 114 99 217 -11 b 575 97 451 -11 522 42 l 589 0 l 697 0 l 697 694 l 572 694 l 572 192 b 389 97 543 153 476 103 b 271 125 315 94 282 114 b 239 272 253 144 239 182 l 239 694 l 114 694 z m 408 815 l 492 815 l 342 1028 l 203 1028 l 203 1004 z "},"ú":{"ha":821,"x_min":0,"x_max":0,"o":"m 114 258 b 357 -11 114 99 217 -11 b 575 97 451 -11 522 42 l 589 0 l 697 0 l 697 694 l 572 694 l 572 192 b 389 97 543 153 476 103 b 271 125 315 94 282 114 b 239 272 253 144 239 182 l 239 694 l 114 694 z m 614 1004 l 614 1028 l 475 1028 l 325 815 l 408 815 z "},"û":{"ha":821,"x_min":0,"x_max":0,"o":"m 114 258 b 357 -11 114 99 217 -11 b 575 97 451 -11 522 42 l 589 0 l 697 0 l 697 694 l 572 694 l 572 192 b 389 97 543 153 476 103 b 271 125 315 94 282 114 b 239 272 253 144 239 182 l 239 694 l 114 694 z m 404 940 l 540 815 l 624 815 l 460 1028 l 349 1028 l 185 815 l 268 815 z "},"ü":{"ha":821,"x_min":0,"x_max":0,"o":"m 114 258 b 357 -11 114 99 217 -11 b 575 97 451 -11 522 42 l 589 0 l 697 0 l 697 694 l 572 694 l 572 192 b 389 97 543 153 476 103 b 271 125 315 94 282 114 b 239 272 253 144 239 182 l 239 694 l 114 694 z m 181 929 b 257 853 181 888 214 853 b 332 929 299 853 332 888 b 257 1006 332 971 299 1006 b 181 929 214 1006 181 971 z m 486 929 b 563 853 486 888 521 853 b 639 929 606 853 639 888 b 563 1006 639 971 606 1006 b 486 929 521 1006 486 971 z "},"ý":{"ha":685,"x_min":0,"x_max":0,"o":"m 301 0 b 221 -168 271 -85 247 -142 b 153 -186 213 -175 193 -186 b 33 -160 101 -186 67 -172 l 33 -265 b 153 -297 50 -275 97 -297 b 415 3 276 -297 339 -199 l 671 694 l 549 694 l 388 229 b 360 133 375 193 367 160 b 331 231 353 160 344 194 l 149 694 l 14 694 z m 561 1004 l 561 1028 l 422 1028 l 272 815 l 356 815 z "},"þ":{"ha":826,"x_min":0,"x_max":0,"o":"m 450 -11 b 760 347 624 -11 760 138 b 451 706 760 557 625 706 b 249 608 353 706 296 658 l 249 1035 l 125 1011 l 125 -294 l 249 -294 l 249 81 b 450 -11 297 33 356 -11 z m 249 514 b 446 599 289 560 353 599 b 586 553 526 599 567 575 b 628 347 610 522 628 447 b 586 144 628 250 608 174 b 446 97 567 121 528 97 b 249 176 354 97 290 136 z "},"ÿ":{"ha":685,"x_min":0,"x_max":0,"o":"m 301 0 b 221 -168 271 -85 247 -142 b 153 -186 213 -175 193 -186 b 33 -160 101 -186 67 -172 l 33 -265 b 153 -297 50 -275 97 -297 b 415 3 276 -297 339 -199 l 671 694 l 549 694 l 388 229 b 360 133 375 193 367 160 b 331 231 353 160 344 194 l 149 694 l 14 694 z m 113 929 b 189 853 113 888 146 853 b 264 929 231 853 264 888 b 189 1006 264 971 231 1006 b 113 929 146 1006 113 971 z m 418 929 b 494 853 418 888 453 853 b 571 929 538 853 571 888 b 494 1006 571 971 538 1006 b 418 929 453 1006 418 971 z "},"Ć":{"ha":844,"x_min":0,"x_max":0,"o":"m 793 978 b 547 1025 739 1004 657 1025 b 76 507 290 1025 76 810 b 547 -11 76 200 286 -11 b 796 40 678 -11 742 14 b 796 147 796 40 796 147 b 551 108 758 133 682 108 b 303 189 417 108 342 149 b 224 507 269 224 224 343 b 301 829 224 675 267 793 b 550 908 340 869 418 908 b 793 872 672 908 756 886 b 793 978 793 872 793 978 z m 690 1296 l 690 1319 l 551 1319 l 401 1107 l 485 1107 z "},"ć":{"ha":638,"x_min":0,"x_max":0,"o":"m 589 136 b 401 100 550 118 486 100 b 244 153 321 100 267 125 b 199 347 222 182 199 250 b 243 547 199 447 219 517 b 401 597 265 574 314 597 b 589 563 482 597 549 579 l 589 664 b 400 706 543 686 489 706 b 67 347 217 706 67 557 b 400 -11 67 138 217 -11 b 589 35 497 -11 554 13 z m 558 1004 l 558 1028 l 419 1028 l 269 815 l 353 815 z "},"Ĺ":{"ha":761,"x_min":0,"x_max":0,"o":"m 156 0 l 758 0 l 758 114 l 288 114 l 288 1014 l 156 1014 z m 493 1296 l 493 1319 l 354 1319 l 204 1107 l 288 1107 z "},"ĺ":{"ha":411,"x_min":0,"x_max":0,"o":"m 360 100 b 251 153 276 88 251 103 l 251 1035 l 126 1011 l 126 153 b 267 -8 126 43 193 -8 b 360 10 319 -8 360 10 z m 417 1296 l 417 1319 l 278 1319 l 128 1107 l 211 1107 z "},"Ń":{"ha":1072,"x_min":0,"x_max":0,"o":"m 153 1014 b 153 0 153 675 153 336 l 275 0 l 275 663 b 271 800 275 710 271 800 b 342 679 271 800 310 725 l 819 0 l 919 0 l 919 1014 l 797 1014 l 797 339 b 801 217 797 293 801 217 b 731 335 801 217 763 289 l 253 1014 z m 754 1296 l 754 1319 l 615 1319 l 465 1107 l 549 1107 z "},"ń":{"ha":818,"x_min":0,"x_max":0,"o":"m 704 436 b 463 706 704 596 603 706 b 246 599 368 706 297 653 l 229 694 l 122 694 l 122 0 l 247 0 l 247 503 b 431 597 276 543 344 592 b 547 569 504 600 536 581 b 579 422 565 550 579 513 l 579 0 l 704 0 z m 619 1004 l 619 1028 l 481 1028 l 331 815 l 414 815 z "},"Œ":{"ha":1318,"x_min":0,"x_max":0,"o":"m 1235 114 l 804 114 l 804 469 l 1168 469 l 1168 581 l 804 581 l 804 900 l 1228 900 l 1228 1014 l 678 1014 b 547 1025 640 1021 596 1025 b 76 507 290 1025 76 810 b 547 -11 76 200 286 -11 b 678 0 600 -11 643 -7 l 1235 0 z m 550 908 b 674 900 597 908 638 904 l 674 115 b 551 108 639 111 599 108 b 303 189 417 108 342 149 b 224 507 269 224 224 343 b 301 829 224 675 267 793 b 550 908 340 869 418 908 z "},"œ":{"ha":1258,"x_min":0,"x_max":0,"o":"m 1197 318 b 1200 361 1197 318 1200 338 b 908 706 1200 575 1078 706 b 658 569 803 706 715 653 b 399 706 599 654 507 706 b 69 347 213 706 69 556 b 399 -11 69 139 213 -11 b 658 128 507 -11 599 42 b 921 -11 718 42 811 -11 b 1156 47 1050 -11 1128 33 l 1156 146 b 926 99 1110 129 1053 99 b 764 150 846 99 786 122 b 724 318 743 176 726 235 z m 593 346 b 554 146 593 247 578 176 b 399 96 532 119 478 96 b 243 147 318 96 265 119 b 201 347 221 176 201 250 b 243 550 201 447 219 519 b 399 599 265 576 319 599 b 554 550 478 599 532 576 b 593 346 578 519 593 447 z m 725 411 b 764 553 731 478 746 529 b 903 600 783 575 822 600 b 1043 553 983 600 1024 575 b 1075 411 1061 531 1075 469 z "},"Ŕ":{"ha":951,"x_min":0,"x_max":0,"o":"m 821 718 b 431 1018 821 926 664 1018 b 156 1013 314 1018 156 1013 l 156 0 l 285 0 l 285 424 b 443 424 289 424 322 424 l 751 0 l 910 0 b 581 436 804 139 604 406 b 821 718 714 471 821 561 z m 285 533 l 285 904 b 431 907 285 904 379 907 b 626 871 572 907 606 885 b 679 718 643 860 679 815 b 626 568 679 624 644 579 b 429 533 607 556 571 533 z m 686 1296 l 686 1319 l 547 1319 l 397 1107 l 481 1107 z "},"ŕ":{"ha":533,"x_min":0,"x_max":0,"o":"m 250 467 b 428 582 265 508 331 582 b 506 574 464 582 493 576 l 506 700 b 456 706 500 701 482 706 b 249 576 354 706 296 639 l 232 694 l 125 694 l 125 0 l 250 0 z m 510 1004 l 510 1028 l 371 1028 l 221 815 l 304 815 z "},"Ś":{"ha":850,"x_min":0,"x_max":0,"o":"m 76 79 b 408 -11 139 43 240 -11 b 767 286 635 -11 767 118 b 581 539 767 415 685 501 b 363 597 503 567 428 582 b 242 649 304 611 263 628 b 243 860 213 678 211 818 b 421 910 260 881 321 910 b 714 844 564 910 660 869 l 714 951 b 425 1025 663 983 564 1025 b 82 746 194 1025 82 882 b 264 500 82 624 165 538 b 482 440 342 471 415 457 b 604 383 549 424 581 408 b 603 157 635 350 638 203 b 413 107 586 135 517 107 b 76 194 250 107 133 167 z m 631 1296 l 631 1319 l 492 1319 l 342 1107 l 425 1107 z "},"ś":{"ha":651,"x_min":0,"x_max":0,"o":"m 451 253 b 447 125 469 233 467 144 b 329 94 432 110 396 94 b 79 160 213 94 122 140 l 79 56 b 325 -11 129 26 208 -11 b 582 204 479 -11 582 82 b 314 417 582 338 463 389 b 211 450 268 425 226 435 b 215 571 194 468 194 550 b 328 600 229 585 258 600 b 544 554 438 600 500 574 l 544 654 b 328 706 500 679 435 706 b 82 503 161 706 82 596 b 343 293 82 369 203 321 b 451 253 394 283 436 272 z m 529 1004 l 529 1028 l 390 1028 l 240 815 l 324 815 z "},"Š":{"ha":850,"x_min":0,"x_max":0,"o":"m 425 1194 l 289 1319 l 206 1319 l 369 1107 l 481 1107 l 644 1319 l 561 1319 z m 76 79 b 408 -11 139 43 240 -11 b 767 286 635 -11 767 118 b 581 539 767 415 685 501 b 363 597 503 567 428 582 b 242 649 304 611 263 628 b 243 860 213 678 211 818 b 421 910 260 881 321 910 b 714 844 564 910 660 869 l 714 951 b 425 1025 663 983 564 1025 b 82 746 194 1025 82 882 b 264 500 82 624 165 538 b 482 440 342 471 415 457 b 604 383 549 424 581 408 b 603 157 635 350 638 203 b 413 107 586 135 517 107 b 76 194 250 107 133 167 z "},"š":{"ha":651,"x_min":0,"x_max":0,"o":"m 333 903 l 197 1028 l 114 1028 l 278 815 l 389 815 l 553 1028 l 469 1028 z m 451 253 b 447 125 469 233 467 144 b 329 94 432 110 396 94 b 79 160 213 94 122 140 l 79 56 b 325 -11 129 26 208 -11 b 582 204 479 -11 582 82 b 314 417 582 338 463 389 b 211 450 268 425 226 435 b 215 571 194 468 194 550 b 328 600 229 585 258 600 b 544 554 438 600 500 574 l 544 654 b 328 706 500 679 435 706 b 82 503 161 706 82 596 b 343 293 82 369 203 321 b 451 253 394 283 436 272 z "},"Ÿ":{"ha":860,"x_min":0,"x_max":0,"o":"m 194 1186 b 275 1111 194 1146 229 1111 b 353 1186 318 1111 353 1146 b 275 1263 353 1226 318 1263 b 194 1186 229 1263 194 1226 z m 514 1186 b 594 1111 514 1146 551 1111 b 675 1186 640 1111 675 1146 b 594 1263 675 1226 640 1263 b 514 1186 551 1263 514 1226 z m 439 511 b 378 633 424 546 400 594 l 157 1014 l 10 1014 l 368 403 l 368 0 l 501 0 b 501 403 501 311 501 156 l 851 1014 l 715 1014 l 500 633 b 439 511 478 596 454 547 z "},"Ź":{"ha":818,"x_min":0,"x_max":0,"o":"m 783 0 l 783 114 l 194 114 b 276 218 224 147 258 192 l 771 924 l 771 1014 l 81 1014 l 81 900 l 618 900 b 539 803 586 863 556 826 l 35 86 l 35 0 z m 626 1296 l 626 1319 l 488 1319 l 338 1107 l 421 1107 z "},"ź":{"ha":636,"x_min":0,"x_max":0,"o":"m 592 0 l 592 103 l 188 103 b 268 197 218 136 250 175 l 583 604 l 583 694 l 72 694 l 72 592 l 446 592 b 364 496 415 558 381 518 l 44 88 l 44 0 z m 525 1004 l 525 1028 l 386 1028 l 236 815 l 319 815 z "},"Ž":{"ha":818,"x_min":0,"x_max":0,"o":"m 426 1194 l 290 1319 l 207 1319 l 371 1107 l 482 1107 l 646 1319 l 563 1319 z m 783 0 l 783 114 l 194 114 b 276 218 224 147 258 192 l 771 924 l 771 1014 l 81 1014 l 81 900 l 618 900 b 539 803 586 863 556 826 l 35 86 l 35 0 z "},"ž":{"ha":636,"x_min":0,"x_max":0,"o":"m 333 903 l 197 1028 l 114 1028 l 278 815 l 389 815 l 553 1028 l 469 1028 z m 592 0 l 592 103 l 188 103 b 268 197 218 136 250 175 l 583 604 l 583 694 l 72 694 l 72 592 l 446 592 b 364 496 415 558 381 518 l 44 88 l 44 0 z "},"ƒ":{"ha":881,"x_min":0,"x_max":0,"o":"m 257 493 l 403 493 l 299 0 b 244 -161 275 -114 258 -147 b 140 -194 232 -174 203 -194 b 14 -168 90 -194 43 -181 l 14 -271 b 140 -303 38 -285 83 -303 b 424 -1 275 -303 382 -194 l 528 493 l 758 493 l 758 597 l 549 597 l 575 731 b 639 896 599 838 615 874 b 743 926 650 907 688 926 b 869 903 810 926 850 911 l 869 1004 b 743 1035 847 1018 813 1035 b 454 732 625 1035 499 946 l 425 597 l 257 597 z "},"ˆ":{"ha":578,"x_min":0,"x_max":0,"o":"m 289 940 l 425 815 l 508 815 l 344 1028 l 233 1028 l 69 815 l 153 815 z "},"˜":{"ha":628,"x_min":0,"x_max":0,"o":"m 92 853 b 174 853 92 853 174 853 b 186 901 174 883 182 897 b 229 913 190 906 199 913 b 390 853 294 913 310 853 b 536 1014 478 853 536 925 b 454 1014 536 1014 454 1014 b 442 965 454 983 446 969 b 397 954 438 961 428 954 b 236 1014 331 954 315 1014 b 92 853 149 1014 92 942 z "},"Ё":{"ha":828,"x_min":0,"x_max":0,"o":"m 213 1186 b 293 1111 213 1146 247 1111 b 371 1186 336 1111 371 1146 b 293 1263 371 1226 336 1263 b 213 1186 247 1263 213 1226 z m 532 1186 b 613 1111 532 1146 569 1111 b 693 1186 658 1111 693 1146 b 613 1263 693 1226 658 1263 b 532 1186 569 1263 532 1226 z m 156 0 l 744 0 l 744 114 l 286 114 l 286 469 l 678 469 l 678 581 l 286 581 l 286 900 l 738 900 l 738 1014 l 156 1014 z "},"Ђ":{"ha":969,"x_min":0,"x_max":0,"o":"m 893 307 b 576 628 893 490 760 628 b 351 579 476 628 408 607 l 351 900 l 682 900 l 682 1014 l -28 1014 l -28 900 l 221 900 l 221 0 l 351 0 l 351 474 b 569 514 383 489 458 514 b 711 476 647 514 696 492 b 750 307 729 458 750 417 b 713 138 750 193 728 154 b 607 108 696 121 661 108 b 468 140 551 108 489 128 l 468 29 b 606 -8 492 13 540 -8 b 893 307 757 -8 893 124 z "},"Ѓ":{"ha":740,"x_min":0,"x_max":0,"o":"m 156 0 l 288 0 l 288 900 l 738 900 l 738 1014 l 156 1014 z m 663 1296 l 663 1319 l 524 1319 l 374 1107 l 457 1107 z "},"Є":{"ha":858,"x_min":0,"x_max":0,"o":"m 793 978 b 547 1025 739 1004 657 1025 b 76 507 290 1025 76 810 b 547 -11 76 200 290 -11 b 796 40 678 -11 742 14 l 796 147 b 551 107 758 133 682 107 b 303 189 417 107 342 149 b 221 460 272 219 229 315 l 649 460 l 649 571 l 221 571 b 301 829 231 708 271 797 b 550 910 340 869 418 910 b 793 872 672 910 756 886 l 793 978 z "},"Ѕ":{"ha":850,"x_min":0,"x_max":0,"o":"m 76 79 b 408 -11 139 43 240 -11 b 767 286 635 -11 767 118 b 581 539 767 415 685 501 b 363 597 503 567 428 582 b 242 649 304 611 263 628 b 243 860 213 678 211 818 b 421 910 260 881 321 910 b 714 844 564 910 660 869 l 714 951 b 425 1025 663 983 564 1025 b 82 746 194 1025 82 882 b 264 500 82 624 165 538 b 482 440 342 471 415 457 b 604 383 549 424 581 408 b 603 157 635 350 638 203 b 413 107 586 135 517 107 b 76 194 250 107 133 167 z "},"І":{"ha":456,"x_min":0,"x_max":0,"o":"m 161 0 l 294 0 l 294 1014 l 161 1014 z "},"Ї":{"ha":458,"x_min":0,"x_max":0,"o":"m 35 1188 b 111 1111 35 1146 68 1111 b 186 1188 153 1111 186 1146 b 111 1264 186 1229 153 1264 b 35 1188 68 1264 35 1229 z m 271 1188 b 347 1111 271 1146 306 1111 b 424 1188 390 1111 424 1146 b 347 1264 424 1229 390 1264 b 271 1188 306 1264 271 1229 z m 163 0 l 296 0 l 296 1014 l 163 1014 z "},"Ј":{"ha":631,"x_min":0,"x_max":0,"o":"m 21 39 b 196 -11 44 21 119 -11 b 472 369 363 -11 472 115 b 472 1014 472 717 472 667 l 339 1014 l 339 378 b 304 140 339 201 324 160 b 192 106 285 121 253 106 b 21 149 125 106 42 135 z "},"Љ":{"ha":1378,"x_min":0,"x_max":0,"o":"m 233 1014 l 233 701 b 176 164 233 276 201 189 b 28 114 154 142 114 114 l 28 -11 l 35 -11 b 335 285 149 -11 285 32 b 363 701 354 386 363 521 l 363 900 l 689 900 l 689 0 b 958 -4 689 0 842 -4 b 1343 301 1196 -4 1343 104 b 982 599 1343 503 1182 599 b 819 594 915 599 849 596 l 819 1014 z m 819 483 b 957 486 850 485 919 486 b 1154 450 1096 486 1131 469 b 1200 300 1175 433 1200 393 b 1156 149 1200 211 1175 165 b 957 108 1133 131 1096 108 b 819 111 906 108 819 111 z "},"Њ":{"ha":1431,"x_min":0,"x_max":0,"o":"m 153 0 l 283 0 l 283 483 l 742 483 l 742 0 b 1011 -4 742 0 894 -4 b 1396 301 1249 -4 1396 104 b 1035 599 1396 503 1235 599 b 872 594 968 599 901 596 l 872 1014 l 742 1014 l 742 594 l 283 594 l 283 1014 l 153 1014 z m 872 483 b 1010 486 903 485 972 486 b 1207 450 1149 486 1183 469 b 1253 300 1228 433 1253 393 b 1208 149 1253 211 1228 165 b 1010 108 1186 131 1149 108 b 872 111 958 108 872 111 z "},"Ћ":{"ha":963,"x_min":0,"x_max":0,"o":"m 351 474 b 563 514 383 489 451 514 b 706 476 649 514 690 492 b 749 294 724 458 749 425 l 749 0 l 879 0 l 879 292 b 569 628 879 500 757 628 b 351 579 460 628 401 603 l 351 900 l 682 900 l 682 1014 l -28 1014 l -28 900 l 221 900 l 221 0 l 351 0 z "},"Ќ":{"ha":919,"x_min":0,"x_max":0,"o":"m 283 503 b 303 496 283 503 294 504 l 746 0 l 915 0 l 429 535 l 885 1014 l 725 1014 l 301 561 b 283 554 293 553 283 554 l 283 1014 l 153 1014 l 153 0 l 283 0 z m 724 1296 l 724 1319 l 585 1319 l 435 1107 l 518 1107 z "},"Ў":{"ha":874,"x_min":0,"x_max":0,"o":"m 678 1278 b 563 1278 678 1278 563 1278 b 542 1197 561 1246 556 1211 b 451 1171 529 1185 506 1171 b 361 1197 397 1171 374 1185 b 340 1278 347 1211 342 1246 b 225 1278 340 1278 225 1278 b 451 1076 232 1150 339 1076 b 678 1278 564 1076 671 1150 z m 414 254 b 338 121 378 168 356 138 b 263 100 329 113 306 100 b 133 128 207 100 156 119 l 133 22 b 263 -11 153 13 203 -11 b 554 290 394 -11 468 89 l 865 1014 l 735 1014 l 514 482 b 475 383 500 446 475 383 b 431 483 475 383 453 439 l 163 1014 l 21 1014 z "},"Џ":{"ha":1043,"x_min":0,"x_max":0,"o":"m 458 0 l 458 -239 l 585 -239 l 585 0 l 890 0 l 890 1014 l 758 1014 l 758 114 l 285 114 l 285 1014 l 153 1014 l 153 0 z "},"А":{"ha":968,"x_min":0,"x_max":0,"o":"m 156 0 l 267 292 l 692 292 l 804 0 l 940 0 l 539 1018 l 429 1018 l 28 0 z m 454 779 b 481 871 468 815 474 840 b 504 779 488 840 490 815 l 650 400 l 308 400 z "},"Б":{"ha":906,"x_min":0,"x_max":0,"o":"m 153 3 b 419 -4 153 3 303 -4 b 819 310 657 -4 819 106 b 440 613 819 510 647 613 b 283 608 374 613 326 611 l 283 900 l 756 900 l 756 1014 l 153 1014 z m 418 499 b 626 463 553 499 604 481 b 676 307 646 446 676 408 b 626 149 676 211 646 164 b 418 108 604 131 557 108 b 283 111 367 108 283 111 l 283 496 b 418 499 314 497 381 499 z "},"В":{"ha":957,"x_min":0,"x_max":0,"o":"m 156 3 b 444 -4 156 3 314 -4 b 846 296 686 -4 846 104 b 661 542 846 424 764 508 b 806 750 744 572 806 663 b 428 1018 806 924 665 1018 b 156 1011 325 1018 156 1011 z m 285 903 b 422 906 313 904 389 906 b 622 874 554 906 600 890 b 665 749 638 861 665 822 b 613 617 665 674 629 629 b 436 583 593 603 558 583 l 285 583 z m 446 110 b 285 113 394 110 285 113 l 285 475 l 446 476 b 650 439 594 476 632 453 b 704 294 667 425 704 385 b 656 149 704 203 675 164 b 446 110 640 138 606 110 z "},"Г":{"ha":740,"x_min":0,"x_max":0,"o":"m 156 0 l 288 0 l 288 900 l 738 900 l 738 1014 l 156 1014 z "},"Д":{"ha":1028,"x_min":0,"x_max":0,"o":"m 875 0 l 875 -211 l 992 -211 l 992 114 l 850 114 l 850 1014 l 236 1014 l 236 810 b 153 161 236 283 183 197 b 94 114 136 140 122 128 l 28 114 l 28 -211 l 144 -211 l 144 0 z m 719 900 l 719 114 l 250 114 b 333 313 285 156 313 218 b 365 810 358 424 365 629 l 365 900 z "},"Е":{"ha":828,"x_min":0,"x_max":0,"o":"m 156 0 l 744 0 l 744 114 l 286 114 l 286 469 l 678 469 l 678 581 l 286 581 l 286 900 l 738 900 l 738 1014 l 156 1014 z "},"Ж":{"ha":1353,"x_min":0,"x_max":0,"o":"m 742 0 l 742 503 b 764 496 742 503 756 504 l 1190 0 l 1357 0 l 886 535 l 1329 1014 l 1171 1014 l 763 561 b 742 554 754 553 742 554 l 742 1014 l 611 1014 l 611 554 b 590 561 611 554 599 553 l 182 1014 l 24 1014 l 467 535 l -4 0 l 163 0 l 589 496 b 611 503 597 504 611 503 l 611 0 z "},"З":{"ha":836,"x_min":0,"x_max":0,"o":"m 239 579 b 239 468 239 579 239 468 b 326 468 239 468 326 468 b 536 428 467 468 521 443 b 581 292 557 407 581 372 b 539 147 581 206 560 168 b 357 107 524 132 468 107 b 49 194 213 107 93 171 l 49 81 b 354 -11 100 49 213 -11 b 725 292 569 -11 725 114 b 540 535 725 419 643 501 b 697 756 624 565 697 653 b 369 1025 697 897 572 1025 b 92 950 239 1025 138 979 l 92 843 b 369 910 140 867 226 910 b 526 871 461 910 510 888 b 557 756 543 854 557 815 b 525 636 557 693 542 653 b 326 579 508 619 468 579 l 239 579 z "},"И":{"ha":1078,"x_min":0,"x_max":0,"o":"m 719 672 b 801 819 744 710 774 767 b 794 688 797 771 794 725 l 794 0 l 925 0 l 925 1014 l 814 1014 l 360 342 b 278 192 335 304 306 244 b 283 326 281 240 283 292 l 283 1014 l 153 1014 l 153 0 l 265 0 z "},"Й":{"ha":1078,"x_min":0,"x_max":0,"o":"m 765 1278 b 650 1278 765 1278 650 1278 b 629 1197 649 1246 643 1211 b 539 1171 617 1185 593 1171 b 449 1197 485 1171 461 1185 b 428 1278 435 1211 429 1246 b 313 1278 428 1278 313 1278 b 539 1076 319 1150 426 1076 b 765 1278 651 1076 758 1150 z m 719 672 b 801 819 744 710 774 767 b 794 688 797 771 794 725 l 794 0 l 925 0 l 925 1014 l 814 1014 l 360 342 b 278 192 335 304 306 244 b 283 326 281 240 283 292 l 283 1014 l 153 1014 l 153 0 l 265 0 z "},"К":{"ha":919,"x_min":0,"x_max":0,"o":"m 283 503 b 303 496 283 503 294 504 l 746 0 l 915 0 l 429 535 l 888 1014 l 725 1014 l 301 561 b 283 554 293 553 283 554 l 283 1014 l 153 1014 l 153 0 l 283 0 z "},"Л":{"ha":1000,"x_min":0,"x_max":0,"o":"m 847 0 l 847 1014 l 233 1014 b 233 701 233 1014 233 701 b 176 164 233 276 201 189 b 28 114 154 142 114 114 l 28 -11 l 35 -11 b 335 285 149 -11 285 32 b 363 701 354 386 363 521 b 363 900 363 701 363 900 l 717 900 l 717 0 z "},"М":{"ha":1271,"x_min":0,"x_max":0,"o":"m 1118 1014 l 1000 1014 l 733 585 b 644 436 697 529 668 478 b 556 583 621 478 590 532 l 271 1014 l 153 1014 l 153 0 l 283 0 l 283 686 b 278 822 283 722 281 772 b 354 675 304 768 331 710 l 621 274 l 665 274 l 915 672 b 992 821 939 710 965 768 b 988 688 989 772 988 722 l 988 0 l 1118 0 z "},"Н":{"ha":1067,"x_min":0,"x_max":0,"o":"m 153 0 l 283 0 l 283 468 l 783 468 l 783 0 l 914 0 l 914 1014 l 783 1014 l 783 579 l 283 579 l 283 1014 l 153 1014 z "},"О":{"ha":1074,"x_min":0,"x_max":0,"o":"m 76 507 b 538 -11 76 204 286 -11 b 997 506 788 -11 997 203 b 538 1025 997 808 788 1025 b 76 507 288 1025 76 810 z m 224 507 b 296 829 224 675 261 793 b 539 908 335 868 410 908 b 779 828 667 908 740 868 b 850 507 814 792 850 675 b 779 186 850 340 815 222 b 539 107 742 149 667 107 b 296 188 407 107 335 147 b 224 507 264 222 224 343 z "},"П":{"ha":1046,"x_min":0,"x_max":0,"o":"m 153 0 l 285 0 l 285 900 l 761 900 l 761 0 l 893 0 l 893 1014 l 153 1014 z "},"Р":{"ha":856,"x_min":0,"x_max":0,"o":"m 283 0 l 283 397 b 443 393 326 394 376 393 b 821 701 643 393 821 493 b 422 1018 821 910 660 1018 b 153 1013 306 1018 153 1013 l 153 0 z m 421 507 b 283 510 383 507 314 508 l 283 903 b 421 906 283 903 369 906 b 626 865 560 906 604 883 b 678 704 646 850 678 800 b 625 543 678 603 646 558 b 421 507 600 525 560 507 z "},"С":{"ha":844,"x_min":0,"x_max":0,"o":"m 793 978 b 547 1025 739 1004 657 1025 b 76 507 290 1025 76 810 b 547 -11 76 200 286 -11 b 796 40 678 -11 742 14 b 796 147 796 40 796 147 b 551 108 758 133 682 108 b 303 189 417 108 342 149 b 224 507 269 224 224 343 b 301 829 224 675 267 793 b 550 908 340 869 418 908 b 793 872 672 908 756 886 b 793 978 793 872 793 978 z "},"Т":{"ha":824,"x_min":0,"x_max":0,"o":"m 17 900 l 346 900 l 346 0 l 478 0 l 478 900 l 807 900 l 807 1014 l 17 1014 z "},"У":{"ha":874,"x_min":0,"x_max":0,"o":"m 414 254 b 338 121 378 168 356 138 b 263 100 329 113 306 100 b 133 128 207 100 156 119 l 133 22 b 263 -11 153 13 203 -11 b 554 290 394 -11 468 89 l 865 1014 l 735 1014 l 514 482 b 475 383 500 446 475 383 b 431 483 475 383 453 439 l 163 1014 l 21 1014 z "},"Ф":{"ha":1156,"x_min":0,"x_max":0,"o":"m 642 -11 l 642 110 b 1079 514 889 114 1079 275 b 642 919 1079 751 889 915 l 642 1028 l 514 1028 l 514 919 b 76 514 263 915 76 751 b 514 110 76 276 263 114 l 514 -11 z m 515 217 b 281 282 397 217 314 251 b 215 515 250 310 215 399 b 281 751 215 635 250 724 b 515 813 314 782 400 813 z m 640 813 b 875 750 753 813 842 781 b 940 515 906 722 940 635 b 875 281 940 396 906 308 b 640 217 842 250 753 217 z "},"Х":{"ha":906,"x_min":0,"x_max":0,"o":"m 14 0 l 160 0 l 406 354 b 451 426 421 376 436 401 b 494 356 465 401 479 378 l 736 0 l 892 0 l 533 521 l 881 1014 l 740 1014 l 521 701 b 461 607 499 668 476 633 b 401 701 446 633 424 668 l 189 1014 l 33 1014 l 376 515 z "},"Ц":{"ha":1061,"x_min":0,"x_max":0,"o":"m 908 0 l 908 -211 l 1025 -211 l 1025 114 l 883 114 l 883 1014 l 753 1014 l 753 114 l 283 114 l 283 1014 l 153 1014 l 153 0 z "},"Ч":{"ha":878,"x_min":0,"x_max":0,"o":"m 725 0 l 725 1014 l 594 1014 l 594 547 b 369 507 563 532 489 507 b 224 544 292 507 239 531 b 175 733 206 560 175 603 l 175 1014 l 44 1014 l 44 736 b 363 393 44 532 171 393 b 594 442 467 393 538 414 l 594 0 z "},"Ш":{"ha":1364,"x_min":0,"x_max":0,"o":"m 617 114 l 286 114 l 286 1014 l 156 1014 l 156 0 l 1208 0 l 1208 1014 l 1078 1014 l 1078 114 l 747 114 l 747 1014 l 617 1014 z "},"Щ":{"ha":1388,"x_min":0,"x_max":0,"o":"m 1233 0 l 1233 -211 l 1350 -211 l 1350 114 l 1208 114 l 1208 1014 l 1078 1014 l 1078 114 l 747 114 l 747 1014 l 617 1014 l 617 114 l 286 114 l 286 1014 l 156 1014 l 156 0 z "},"Ъ":{"ha":922,"x_min":0,"x_max":0,"o":"m 488 507 b 692 471 626 507 667 489 b 744 310 713 456 744 411 b 693 149 744 214 713 164 b 488 108 671 131 626 108 b 350 111 436 108 350 111 l 350 504 b 488 507 381 506 450 507 z m 219 0 b 489 -4 219 0 372 -4 b 888 313 726 -4 888 104 b 513 619 888 521 713 619 b 350 617 446 619 382 618 l 350 1014 l -28 1014 l -28 900 l 219 900 z "},"Ы":{"ha":1246,"x_min":0,"x_max":0,"o":"m 153 1014 l 153 0 b 422 -4 153 0 306 -4 b 810 313 660 -4 810 104 b 446 619 810 521 646 619 b 283 617 379 619 313 618 l 283 1014 z m 421 507 b 614 471 560 507 589 489 b 667 310 635 456 667 411 b 615 149 667 214 635 164 b 421 108 593 131 560 108 b 283 111 369 108 283 111 l 283 504 b 421 507 314 506 383 507 z m 960 0 l 1093 0 b 1093 1014 1093 347 1093 667 l 960 1014 z "},"Ь":{"ha":856,"x_min":0,"x_max":0,"o":"m 153 1014 l 153 0 b 422 -4 153 0 306 -4 b 821 313 660 -4 821 104 b 446 619 821 521 646 619 b 283 617 379 619 313 618 l 283 1014 z m 283 504 b 421 507 314 506 383 507 b 625 471 560 507 600 489 b 678 310 646 456 678 411 b 626 149 678 214 646 164 b 421 108 604 131 560 108 b 283 111 369 108 283 111 z "},"Э":{"ha":858,"x_min":0,"x_max":0,"o":"m 638 460 b 556 189 629 315 585 219 b 307 107 517 149 442 107 b 63 147 176 107 100 133 l 63 40 b 311 -11 117 14 181 -11 b 782 507 564 -11 782 200 b 311 1025 782 810 581 1025 b 65 978 201 1025 119 1004 l 65 872 b 308 910 103 886 186 910 b 557 829 440 910 518 869 b 638 571 588 797 628 708 l 210 571 l 210 460 z "},"Ю":{"ha":1433,"x_min":0,"x_max":0,"o":"m 283 0 l 283 468 l 482 468 b 917 -11 496 182 682 -11 b 1357 506 1167 -11 1357 203 b 917 1025 1357 808 1167 1025 b 482 579 688 1025 507 836 l 283 579 l 283 1014 l 153 1014 l 153 0 z m 1142 831 b 1213 507 1174 796 1213 675 b 1143 185 1213 340 1176 219 b 918 106 1110 149 1035 106 b 690 186 797 106 725 147 b 619 507 661 219 619 343 b 689 829 619 675 657 793 b 917 910 724 868 796 910 b 1142 831 1033 910 1108 867 z "},"Я":{"ha":951,"x_min":0,"x_max":0,"o":"m 796 0 l 796 1011 b 514 1018 796 1011 631 1018 b 119 713 276 1018 119 908 b 358 419 119 556 225 456 b 42 0 335 389 147 139 l 201 0 l 496 404 b 667 408 603 404 663 408 l 667 0 z m 667 518 b 515 514 667 518 592 514 b 318 550 374 514 338 538 b 261 713 300 561 261 618 b 318 871 261 810 301 860 b 514 907 339 885 372 907 b 667 904 565 907 667 904 z "},"а":{"ha":761,"x_min":0,"x_max":0,"o":"m 428 419 b 76 194 192 419 76 331 b 285 -10 76 58 175 -10 b 503 76 381 -10 450 36 b 624 -8 526 21 571 -8 b 708 13 676 -8 708 13 l 708 99 b 614 151 643 86 614 100 l 614 471 b 372 706 614 626 513 706 b 135 640 283 706 206 681 b 135 542 135 640 135 542 b 369 599 174 560 257 599 b 469 569 439 599 458 582 b 490 447 486 549 490 528 l 490 419 z m 490 168 b 306 94 460 129 374 94 b 236 110 276 94 250 99 b 207 197 222 121 207 139 b 239 293 207 256 226 282 b 458 325 275 325 349 325 l 490 325 z "},"б":{"ha":799,"x_min":0,"x_max":0,"o":"m 261 151 b 210 350 233 185 211 269 b 260 535 208 468 226 501 b 414 589 281 556 325 589 b 560 542 488 589 538 567 b 600 342 582 515 600 442 b 560 146 600 243 583 172 b 408 96 538 121 486 96 b 261 151 326 96 276 133 z m 664 1056 b 446 1014 624 1038 592 1022 b 76 461 247 1003 76 808 b 408 -11 76 147 225 -11 b 732 342 588 -11 732 142 b 419 694 732 554 593 694 b 199 569 317 694 233 635 b 282 838 211 735 253 808 b 447 896 299 854 332 889 b 664 949 583 904 626 925 z "},"в":{"ha":750,"x_min":0,"x_max":0,"o":"m 125 0 b 374 -6 125 0 283 -6 b 669 204 553 -6 669 72 b 540 372 669 289 611 349 b 640 514 596 393 640 453 b 360 700 640 629 536 700 b 125 694 288 700 125 694 z m 379 317 b 521 282 474 317 501 301 b 539 206 532 271 539 239 b 521 128 539 172 532 139 b 372 94 500 107 478 94 b 249 96 336 94 249 96 l 249 317 z m 249 599 b 353 600 268 599 329 600 b 496 571 440 600 476 590 b 511 507 506 561 511 533 b 496 442 511 479 506 451 b 369 410 481 426 458 410 l 249 410 z "},"г":{"ha":576,"x_min":0,"x_max":0,"o":"m 125 0 l 250 0 l 250 590 l 571 590 l 571 694 l 125 694 z "},"д":{"ha":799,"x_min":0,"x_max":0,"o":"m 126 -194 l 126 0 l 657 0 l 657 -194 l 763 -194 l 763 103 l 651 103 l 651 694 l 186 694 l 186 575 b 128 142 186 235 151 172 b 76 103 117 128 97 113 l 21 103 l 21 -194 z m 526 593 l 526 103 l 221 103 b 281 224 246 135 267 174 b 310 563 304 311 310 472 l 310 593 z "},"е":{"ha":746,"x_min":0,"x_max":0,"o":"m 685 318 b 688 361 685 318 688 338 b 393 706 688 575 563 706 b 72 344 211 706 72 554 b 406 -11 72 135 219 -11 b 643 47 535 -11 615 33 l 643 146 b 411 99 597 129 538 99 b 246 150 331 99 268 122 b 204 318 225 176 207 235 z m 246 553 b 388 600 265 575 307 600 b 531 553 468 600 511 575 b 563 411 549 531 563 469 l 207 411 b 246 553 213 478 228 529 z "},"ж":{"ha":1042,"x_min":0,"x_max":0,"o":"m 460 0 l 582 0 l 582 346 b 600 338 582 346 593 346 l 874 0 l 1026 0 l 714 369 l 1018 694 l 867 694 l 599 396 b 582 386 590 388 582 386 l 582 694 l 460 694 l 460 386 b 443 396 460 386 451 388 l 175 694 l 24 694 l 328 369 l 15 0 l 168 0 l 442 338 b 460 346 449 346 460 346 z "},"з":{"ha":650,"x_min":0,"x_max":0,"o":"m 189 410 b 189 317 189 410 189 317 b 281 317 189 317 281 317 b 421 281 365 317 403 299 b 421 125 444 257 444 149 b 290 94 406 110 376 94 b 50 156 182 94 81 140 l 50 54 b 289 -11 85 32 186 -11 b 569 200 467 -11 569 85 b 442 367 569 288 510 346 b 553 517 500 388 553 446 b 301 706 553 615 463 706 b 83 654 211 706 115 674 l 83 554 b 301 600 118 569 203 600 b 408 575 365 600 396 588 b 408 446 429 554 426 464 b 281 410 392 429 361 410 l 189 410 z "},"и":{"ha":818,"x_min":0,"x_max":0,"o":"m 519 419 b 582 522 538 446 563 486 b 576 425 579 489 576 450 l 576 0 l 697 0 l 697 696 l 589 696 l 300 276 b 238 172 282 251 257 208 b 242 272 239 206 242 249 l 242 696 l 121 696 l 121 0 l 231 0 z "},"й":{"ha":818,"x_min":0,"x_max":0,"o":"m 614 1014 b 500 1014 614 1014 500 1014 b 482 929 499 979 493 940 b 414 908 471 918 456 908 b 344 929 372 908 356 918 b 326 1014 333 940 328 979 b 213 1014 326 1014 213 1014 b 414 815 218 890 310 815 b 614 1014 518 815 608 886 z m 519 419 b 582 522 538 446 563 486 b 576 425 579 489 576 450 l 576 0 l 697 0 l 697 696 l 589 696 l 300 276 b 238 172 282 251 257 208 b 242 272 239 206 242 249 l 242 696 l 121 696 l 121 0 l 231 0 z "},"к":{"ha":729,"x_min":0,"x_max":0,"o":"m 250 346 b 268 338 250 346 261 346 l 560 0 l 715 0 l 386 371 l 707 694 l 553 694 l 267 397 b 250 388 258 389 250 388 l 250 694 l 125 694 l 125 0 l 250 0 z "},"л":{"ha":758,"x_min":0,"x_max":0,"o":"m 513 590 l 513 0 l 638 0 l 638 694 l 172 694 b 172 561 172 694 172 561 b 128 146 172 225 153 171 b 17 108 108 126 86 108 l 17 -11 l 24 -11 b 271 224 88 -11 218 15 b 296 563 293 311 296 472 l 296 590 z "},"м":{"ha":989,"x_min":0,"x_max":0,"o":"m 867 694 l 754 694 l 563 401 b 501 299 538 363 518 326 b 440 400 486 326 464 365 l 235 694 l 122 694 l 122 0 l 246 0 l 246 424 b 240 517 246 449 243 485 b 296 418 258 478 272 453 l 481 146 l 517 146 l 692 417 b 749 517 714 451 729 478 b 743 425 744 483 743 449 l 743 0 l 867 0 z "},"н":{"ha":807,"x_min":0,"x_max":0,"o":"m 563 0 l 686 0 l 686 694 l 563 694 l 563 415 l 244 415 l 244 694 l 121 694 l 121 0 l 244 0 l 244 311 l 563 311 z "},"о":{"ha":797,"x_min":0,"x_max":0,"o":"m 67 347 b 399 -11 67 139 213 -11 b 731 347 583 -11 731 139 b 399 706 731 558 586 706 b 67 347 213 706 67 556 z m 199 347 b 240 550 199 447 217 519 b 399 599 263 576 319 599 b 557 549 478 599 535 575 b 599 347 581 518 599 447 b 557 146 599 249 581 176 b 399 96 535 119 478 96 b 240 147 318 96 263 119 b 199 347 218 176 199 250 z "},"п":{"ha":804,"x_min":0,"x_max":0,"o":"m 558 0 l 683 0 l 683 694 l 121 694 l 121 0 l 246 0 l 246 590 l 558 590 z "},"р":{"ha":826,"x_min":0,"x_max":0,"o":"m 450 -11 b 760 347 624 -11 760 138 b 451 706 760 557 625 706 b 246 606 351 706 294 657 l 231 694 l 125 694 l 125 -294 l 249 -294 l 249 81 b 450 -11 297 33 356 -11 z m 249 514 b 446 599 289 560 353 599 b 586 553 526 599 567 575 b 628 347 610 522 628 447 b 586 144 628 250 608 174 b 446 97 567 121 528 97 b 249 176 354 97 290 136 z "},"с":{"ha":638,"x_min":0,"x_max":0,"o":"m 589 136 b 401 100 550 118 486 100 b 244 153 321 100 267 125 b 199 347 222 182 199 250 b 243 547 199 447 219 517 b 401 597 265 574 314 597 b 589 563 482 597 549 579 l 589 664 b 400 706 543 686 489 706 b 67 347 217 706 67 557 b 400 -11 67 138 217 -11 b 589 35 497 -11 554 13 z "},"т":{"ha":586,"x_min":0,"x_max":0,"o":"m 8 590 l 231 590 l 231 0 l 356 0 l 356 590 l 578 590 l 578 694 l 8 694 z "},"у":{"ha":685,"x_min":0,"x_max":0,"o":"m 301 0 b 221 -168 271 -85 247 -142 b 153 -186 213 -175 193 -186 b 33 -160 101 -186 67 -172 l 33 -265 b 153 -297 50 -275 97 -297 b 415 3 276 -297 339 -199 l 671 694 l 549 694 l 388 229 b 360 133 375 193 367 160 b 331 231 353 160 344 194 l 149 694 l 14 694 z "},"ф":{"ha":956,"x_min":0,"x_max":0,"o":"m 539 1035 l 417 1011 l 417 700 b 69 347 231 700 69 560 b 417 -6 69 135 231 -6 l 417 -294 l 539 -294 l 539 -6 b 886 347 724 -6 886 135 b 539 700 886 564 724 700 z m 418 97 b 243 144 338 97 265 117 b 197 347 221 172 197 251 b 243 551 197 446 219 522 b 418 597 265 578 339 597 z m 538 597 b 713 551 617 597 690 578 b 758 347 736 522 758 446 b 713 144 758 250 736 174 b 538 97 690 118 617 97 z "},"х":{"ha":674,"x_min":0,"x_max":0,"o":"m 21 0 l 154 0 l 289 196 b 336 269 307 222 336 269 b 381 196 336 269 361 225 l 510 0 l 653 0 l 411 356 l 650 694 l 522 694 l 399 517 b 347 435 379 489 347 435 b 296 517 347 435 317 486 l 176 694 l 35 694 l 269 350 z "},"ц":{"ha":818,"x_min":0,"x_max":0,"o":"m 246 694 l 121 694 l 121 0 l 679 0 l 679 -194 l 785 -194 l 785 104 l 672 104 l 672 694 l 547 694 l 547 104 l 246 104 z "},"ч":{"ha":718,"x_min":0,"x_max":0,"o":"m 590 0 l 590 694 l 465 694 l 465 386 b 294 363 442 375 375 363 b 206 386 249 363 215 376 b 178 511 196 396 178 429 l 178 694 l 53 694 l 53 507 b 289 254 53 367 143 254 b 465 294 367 254 432 276 l 465 0 z "},"ш":{"ha":1107,"x_min":0,"x_max":0,"o":"m 492 104 l 247 104 l 247 694 l 122 694 l 122 0 l 985 0 l 985 694 l 860 694 l 860 104 l 615 104 l 615 694 l 492 694 z "},"щ":{"ha":1132,"x_min":0,"x_max":0,"o":"m 992 0 l 992 -194 l 1097 -194 l 1097 104 l 985 104 l 985 694 l 860 694 l 860 104 l 615 104 l 615 694 l 492 694 l 492 104 l 247 104 l 247 694 l 122 694 l 122 0 z "},"ъ":{"ha":751,"x_min":0,"x_max":0,"o":"m 322 694 l 3 694 l 3 590 l 197 590 l 197 0 b 425 -6 197 0 335 -6 b 717 221 604 -6 717 76 b 428 439 717 357 615 439 b 322 436 396 439 368 438 z m 424 339 b 565 308 521 339 546 328 b 586 221 576 297 586 263 b 565 125 586 179 576 136 b 424 94 546 106 525 94 b 322 96 388 94 322 96 l 322 338 b 424 339 344 338 400 339 z "},"ы":{"ha":986,"x_min":0,"x_max":0,"o":"m 246 694 l 121 694 l 121 0 b 335 -6 121 0 244 -6 b 625 221 514 -6 625 76 b 338 439 625 357 525 439 b 246 436 306 439 292 438 z m 333 339 b 475 308 431 339 456 328 b 496 221 486 297 496 263 b 475 125 496 179 486 136 b 333 94 456 106 435 94 b 246 96 297 94 246 96 l 246 338 b 333 339 268 338 310 339 z m 740 0 l 865 0 l 865 694 l 740 694 z "},"ь":{"ha":675,"x_min":0,"x_max":0,"o":"m 246 694 l 121 694 l 121 0 b 349 -6 121 0 258 -6 b 640 221 528 -6 640 76 b 351 439 640 357 539 439 b 246 436 319 439 292 438 z m 347 339 b 489 308 444 339 469 328 b 510 221 500 297 510 263 b 489 125 510 179 500 136 b 347 94 469 106 449 94 b 246 96 311 94 246 96 l 246 338 b 347 339 268 338 324 339 z "},"э":{"ha":658,"x_min":0,"x_max":0,"o":"m 171 306 l 454 306 b 411 153 450 229 431 178 b 251 100 389 125 332 100 b 56 138 167 100 99 121 l 56 38 b 253 -11 96 15 156 -11 b 586 349 435 -11 586 143 b 253 706 586 563 443 706 b 60 664 164 706 113 686 l 60 564 b 251 597 106 581 171 597 b 413 547 339 597 390 574 b 454 400 432 522 450 472 l 171 400 z "},"ю":{"ha":1094,"x_min":0,"x_max":0,"o":"m 400 311 b 711 -11 414 119 546 -11 b 1028 347 885 -11 1028 139 b 711 706 1028 560 885 706 b 401 415 556 706 426 588 l 246 415 l 246 694 l 122 694 l 122 0 l 246 0 l 246 311 z m 525 347 b 563 550 525 447 540 519 b 711 599 583 576 636 599 b 860 550 786 599 839 576 b 897 347 882 519 897 447 b 860 146 897 249 882 176 b 711 96 839 119 786 96 b 563 146 635 96 583 118 b 525 347 542 175 525 250 z "},"я":{"ha":760,"x_min":0,"x_max":0,"o":"m 639 0 l 639 694 b 394 700 639 694 475 700 b 107 488 228 700 107 622 b 275 289 107 376 186 310 l 63 0 l 199 0 l 393 276 b 515 279 454 276 513 279 l 515 0 z m 515 372 b 396 369 515 372 465 369 b 257 407 304 369 276 388 b 238 488 246 418 238 454 b 257 567 238 521 246 556 b 403 600 278 588 297 600 b 515 599 439 600 515 599 z "},"ё":{"ha":743,"x_min":0,"x_max":0,"o":"m 169 929 b 246 853 169 888 203 853 b 321 929 288 853 321 888 b 246 1006 321 971 288 1006 b 169 929 203 1006 169 971 z m 475 929 b 551 853 475 888 510 853 b 628 929 594 853 628 888 b 551 1006 628 971 594 1006 b 475 929 510 1006 475 971 z m 682 319 b 685 361 682 319 685 338 b 390 706 685 575 560 706 b 69 344 208 706 69 554 b 403 -11 69 135 217 -11 b 640 47 532 -11 613 33 l 640 146 b 408 99 594 129 535 99 b 243 150 328 99 265 122 b 201 319 222 176 204 236 z m 243 553 b 385 600 263 575 304 600 b 528 553 465 600 508 575 b 560 411 546 531 560 469 l 204 411 b 243 553 210 478 225 529 z "},"ђ":{"ha":833,"x_min":0,"x_max":0,"o":"m 256 0 l 256 439 b 432 533 282 479 347 528 b 557 506 506 538 546 517 b 589 358 575 486 589 453 l 589 28 b 571 -160 589 -86 582 -144 b 485 -194 561 -172 549 -194 b 368 -169 435 -194 396 -181 l 368 -272 b 485 -303 390 -285 436 -303 b 714 28 615 -303 714 -199 l 714 372 b 472 642 714 532 613 642 b 256 540 379 642 308 593 l 256 746 l 504 746 l 504 850 l 256 850 l 256 1035 l 132 1011 l 132 850 l 7 850 l 7 746 l 132 746 l 132 0 z "},"ѓ":{"ha":578,"x_min":0,"x_max":0,"o":"m 564 1004 l 564 1028 l 425 1028 l 275 815 l 358 815 z m 125 0 l 250 0 l 250 590 l 571 590 l 571 694 l 125 694 z "},"є":{"ha":656,"x_min":0,"x_max":0,"o":"m 488 400 l 204 400 b 246 547 208 472 226 522 b 407 597 268 574 319 597 b 600 564 488 597 554 581 l 600 664 b 406 706 547 686 494 706 b 72 347 219 706 72 557 b 406 -11 72 138 219 -11 b 600 36 503 -11 560 14 l 600 136 b 407 100 557 119 492 100 b 247 153 326 100 269 125 b 204 306 228 178 208 229 l 488 306 z "},"ѕ":{"ha":651,"x_min":0,"x_max":0,"o":"m 451 253 b 447 125 469 233 467 144 b 329 94 432 110 396 94 b 79 160 213 94 122 140 l 79 56 b 325 -11 129 26 208 -11 b 582 204 479 -11 582 82 b 314 417 582 338 463 389 b 211 450 268 425 226 435 b 215 571 194 468 194 550 b 328 600 229 585 258 600 b 544 554 438 600 500 574 l 544 654 b 328 706 500 679 435 706 b 82 503 161 706 82 596 b 343 293 82 369 203 321 b 451 253 394 283 436 272 z "},"і":{"ha":381,"x_min":0,"x_max":0,"o":"m 128 0 l 253 0 b 253 694 253 347 253 347 l 128 694 z m 106 943 b 190 858 106 896 143 858 b 275 943 238 858 275 896 b 190 1028 275 990 238 1028 b 106 943 143 1028 106 990 z "},"ї":{"ha":414,"x_min":0,"x_max":0,"o":"m 14 929 b 90 853 14 888 47 853 b 165 929 132 853 165 888 b 90 1006 165 971 132 1006 b 14 929 47 1006 14 971 z m 247 929 b 324 853 247 888 282 853 b 400 929 367 853 400 888 b 324 1006 400 971 367 1006 b 247 929 282 1006 247 971 z m 144 0 l 269 0 b 269 694 269 347 269 347 l 144 694 z "},"ј":{"ha":410,"x_min":0,"x_max":0,"o":"m 154 0 b 136 -160 154 -114 147 -144 b 46 -194 126 -172 110 -194 b -74 -168 -4 -194 -42 -181 l -74 -271 b 46 -303 -47 -285 -11 -303 b 279 -1 181 -303 279 -190 l 279 694 l 154 694 z m 132 943 b 217 858 132 896 169 858 b 301 943 264 858 301 896 b 217 1028 301 990 264 1028 b 132 943 169 1028 132 990 z "},"љ":{"ha":1038,"x_min":0,"x_max":0,"o":"m 499 590 l 499 0 b 713 -6 499 0 622 -6 b 999 221 892 -6 999 81 b 715 439 999 353 903 439 b 624 436 683 439 669 438 l 624 694 l 172 694 l 172 561 b 128 146 172 225 153 171 b 17 108 108 126 86 108 l 17 -11 l 24 -11 b 271 224 88 -11 218 15 b 296 563 293 311 296 472 l 296 590 z m 711 339 b 849 308 800 339 829 328 b 869 221 860 297 869 263 b 849 125 869 179 860 136 b 711 94 829 106 804 94 b 624 96 675 94 624 96 l 624 338 b 711 339 646 338 688 339 z "},"њ":{"ha":1086,"x_min":0,"x_max":0,"o":"m 672 694 l 549 694 l 549 415 l 244 415 l 244 694 l 121 694 l 121 0 l 244 0 l 244 311 l 549 311 l 549 0 b 761 -6 549 0 671 -6 b 1047 221 940 -6 1047 81 b 764 439 1047 353 951 439 b 672 436 732 439 718 438 z m 760 339 b 897 308 849 339 878 328 b 918 221 908 297 918 263 b 897 125 918 179 908 136 b 760 94 878 106 853 94 b 672 96 724 94 672 96 l 672 338 b 760 339 694 338 736 339 z "},"ћ":{"ha":828,"x_min":0,"x_max":0,"o":"m 256 0 l 256 439 b 432 533 282 479 347 528 b 557 506 506 538 546 517 b 589 358 575 486 589 453 l 589 0 b 714 0 589 0 714 0 l 714 372 b 472 642 714 532 613 642 b 256 540 379 642 308 593 l 256 746 l 504 746 l 504 850 l 256 850 l 256 1035 l 132 1011 l 132 850 l 7 850 l 7 746 l 132 746 l 132 0 z "},"ќ":{"ha":729,"x_min":0,"x_max":0,"o":"m 633 1004 l 633 1028 l 494 1028 l 344 815 l 428 815 z m 250 346 b 268 338 250 346 261 346 l 560 0 l 715 0 l 386 371 l 707 694 l 553 694 l 267 397 b 250 388 258 389 250 388 l 250 694 l 125 694 l 125 0 l 250 0 z "},"ў":{"ha":685,"x_min":0,"x_max":0,"o":"m 551 1014 b 438 1014 551 1014 438 1014 b 419 929 436 979 429 940 b 351 908 408 919 393 908 b 282 929 310 908 293 919 b 264 1014 272 940 265 979 b 150 1014 264 1014 150 1014 b 351 815 156 890 247 815 b 551 1014 456 815 546 886 z m 301 0 b 221 -168 271 -85 247 -142 b 153 -186 213 -175 193 -186 b 33 -160 101 -186 67 -172 l 33 -265 b 153 -297 50 -275 97 -297 b 415 3 276 -297 339 -199 l 671 694 l 549 694 l 388 229 b 360 133 375 193 367 160 b 331 231 353 160 344 194 l 149 694 l 14 694 z "},"џ":{"ha":804,"x_min":0,"x_max":0,"o":"m 558 104 l 246 104 l 246 694 l 121 694 l 121 0 l 343 0 l 343 -208 l 461 -208 l 461 0 l 683 0 l 683 694 l 558 694 z "},"Ґ":{"ha":740,"x_min":0,"x_max":0,"o":"m 738 1211 l 621 1211 l 621 1014 l 156 1014 l 156 0 l 288 0 l 288 900 l 738 900 z "},"ґ":{"ha":578,"x_min":0,"x_max":0,"o":"m 571 590 l 571 875 l 465 875 l 465 694 l 121 694 l 121 0 l 246 0 l 246 590 z "},"ẞ":{"ha":994,"x_min":0,"x_max":0,"o":"m 438 596 b 438 501 438 596 438 501 b 725 460 629 501 692 488 b 769 306 746 443 769 401 b 725 143 769 210 746 160 b 575 103 708 131 671 103 b 397 140 494 103 432 125 l 397 32 b 574 -11 443 11 494 -11 b 911 306 760 -11 911 138 b 576 613 911 472 769 606 b 668 690 576 613 642 664 l 846 863 b 528 1025 775 964 654 1025 b 147 613 318 1025 147 854 b 147 0 147 265 147 347 l 281 0 l 281 568 b 342 849 281 754 319 826 b 528 908 364 871 421 908 b 711 863 611 908 681 883 z "},"–":{"ha":811,"x_min":0,"x_max":0,"o":"m 97 372 l 714 372 l 714 479 l 97 479 z "},"—":{"ha":1068,"x_min":0,"x_max":0,"o":"m 83 372 l 985 372 l 985 479 l 83 479 z "},"‘":{"ha":292,"x_min":0,"x_max":0,"o":"m 157 708 b 236 786 204 708 236 743 b 158 864 236 831 207 864 b 144 864 150 864 144 864 b 215 1014 144 933 193 985 l 133 1014 b 56 844 108 985 56 935 b 157 708 56 746 100 708 z "},"’":{"ha":292,"x_min":0,"x_max":0,"o":"m 135 1014 b 56 936 88 1014 56 979 b 133 858 56 892 85 858 b 147 858 142 858 147 858 b 76 708 147 789 99 738 l 158 708 b 236 878 183 738 236 788 b 135 1014 236 976 192 1014 z "},"‚":{"ha":326,"x_min":0,"x_max":0,"o":"m 149 156 b 69 78 101 156 69 121 b 147 0 69 33 99 0 b 161 0 156 0 161 0 b 90 -160 161 -69 113 -128 l 171 -160 b 250 15 196 -131 250 -83 b 149 156 250 114 206 156 z "},"“":{"ha":536,"x_min":0,"x_max":0,"o":"m 157 708 b 236 786 204 708 236 743 b 158 864 236 831 207 864 b 144 864 150 864 144 864 b 215 1014 144 933 193 985 l 133 1014 b 56 844 108 985 56 935 b 157 708 56 746 100 708 z m 401 708 b 481 786 449 708 481 743 b 403 864 481 831 451 864 b 389 864 394 864 389 864 b 460 1014 389 933 438 985 l 378 1014 b 300 844 353 985 300 935 b 401 708 300 746 344 708 z "},"”":{"ha":536,"x_min":0,"x_max":0,"o":"m 379 1014 b 300 936 332 1014 300 979 b 378 858 300 892 329 858 b 392 858 386 858 392 858 b 321 708 392 789 343 738 l 403 708 b 481 878 428 738 481 788 b 379 1014 481 976 436 1014 z m 135 1014 b 56 936 88 1014 56 979 b 133 858 56 892 85 858 b 147 858 142 858 147 858 b 76 708 147 789 99 738 l 158 708 b 236 878 183 738 236 788 b 135 1014 236 976 192 1014 z "},"„":{"ha":536,"x_min":0,"x_max":0,"o":"m 379 156 b 300 78 332 156 300 121 b 378 0 300 33 329 0 b 392 0 386 0 392 0 b 321 -150 392 -69 343 -121 l 403 -150 b 481 19 428 -121 481 -71 b 379 156 481 118 436 156 z m 135 156 b 56 78 88 156 56 121 b 133 0 56 33 85 0 b 147 0 142 0 147 0 b 76 -150 147 -69 99 -121 l 158 -150 b 236 19 183 -121 236 -71 b 135 156 236 118 192 156 z "},"†":{"ha":713,"x_min":0,"x_max":0,"o":"m 56 626 l 307 626 l 307 -211 l 407 -211 l 407 626 l 657 626 l 657 729 l 407 729 l 407 1025 l 307 1025 l 307 729 l 56 729 z "},"‡":{"ha":740,"x_min":0,"x_max":0,"o":"m 69 85 l 321 85 l 321 -211 l 421 -211 l 421 85 l 671 85 l 671 188 l 421 188 l 421 626 l 671 626 l 671 729 l 421 729 l 421 1025 l 321 1025 l 321 729 l 69 729 l 69 626 l 321 626 l 321 188 l 69 188 z "},"•":{"ha":594,"x_min":0,"x_max":0,"o":"m 483 417 b 297 603 483 519 400 603 b 111 417 194 603 111 519 b 297 231 111 314 194 231 b 483 417 400 231 483 314 z "},"…":{"ha":1169,"x_min":0,"x_max":0,"o":"m 290 82 b 197 175 290 133 249 175 b 104 82 146 175 104 133 b 197 -11 104 31 146 -11 b 290 82 249 -11 290 31 z m 671 82 b 578 175 671 133 629 175 b 485 82 526 175 485 133 b 578 -11 485 31 526 -11 b 671 82 629 -11 671 31 z m 1065 82 b 972 175 1065 133 1024 175 b 879 82 921 175 879 133 b 972 -11 879 31 921 -11 b 1065 82 1024 -11 1065 31 z "},"‰":{"ha":1622,"x_min":0,"x_max":0,"o":"m 118 0 l 236 0 l 1004 1014 l 886 1014 z m 69 793 b 296 560 69 657 171 560 b 522 793 419 560 522 657 b 296 1022 522 926 419 1022 b 69 793 171 1022 69 926 z m 185 793 b 207 903 185 850 196 890 b 296 929 218 915 250 929 b 385 903 342 929 374 915 b 407 793 394 890 407 850 b 385 681 407 736 394 693 b 296 654 374 668 342 654 b 207 681 250 654 218 668 b 185 793 196 692 185 738 z m 600 225 b 826 -8 600 89 701 -8 b 1053 225 950 -8 1053 89 b 826 454 1053 358 950 454 b 600 225 701 454 600 358 z m 715 225 b 738 335 715 282 726 322 b 826 361 749 347 781 361 b 915 335 872 361 904 347 b 938 225 925 322 938 282 b 915 113 938 168 925 125 b 826 86 904 100 872 86 b 738 113 781 86 749 100 b 715 225 726 124 715 169 z m 1128 225 b 1354 -8 1128 89 1229 -8 b 1581 225 1478 -8 1581 89 b 1354 454 1581 358 1478 454 b 1128 225 1229 454 1128 358 z m 1243 225 b 1265 335 1243 282 1254 322 b 1354 361 1276 347 1308 361 b 1443 335 1400 361 1432 347 b 1465 225 1453 322 1465 282 b 1443 113 1465 168 1453 125 b 1354 86 1432 100 1400 86 b 1265 113 1308 86 1276 100 b 1243 225 1254 124 1243 169 z "},"‹":{"ha":451,"x_min":0,"x_max":0,"o":"m 276 82 l 403 82 l 151 361 l 403 639 l 276 639 l 49 385 b 49 336 49 385 49 336 z "},"›":{"ha":451,"x_min":0,"x_max":0,"o":"m 403 336 b 403 385 403 336 403 385 l 175 639 l 49 639 l 300 361 l 49 82 l 175 82 z "},"₁":{"ha":497,"x_min":0,"x_max":0,"o":"m 97 -167 l 414 -167 l 414 -75 l 308 -75 l 308 419 l 97 340 l 97 251 l 151 271 b 211 294 179 281 211 294 b 211 -75 211 103 211 63 l 97 -75 z "},"₂":{"ha":568,"x_min":0,"x_max":0,"o":"m 471 -167 l 471 -75 l 218 -75 b 269 -29 218 -75 246 -53 b 458 238 386 90 458 153 b 269 419 458 333 389 419 b 101 360 194 419 128 378 l 101 272 b 271 328 129 289 193 328 b 335 310 311 328 326 318 b 353 238 343 301 353 282 b 335 161 353 194 344 174 b 83 -97 310 129 203 21 l 83 -167 z "},"₃":{"ha":572,"x_min":0,"x_max":0,"o":"m 110 321 l 339 321 b 275 271 339 321 300 293 l 172 179 b 172 104 172 179 172 104 b 261 111 172 104 217 111 b 354 90 317 111 346 99 b 374 15 363 82 374 61 b 354 -62 374 -32 363 -54 b 264 -83 346 -71 317 -83 b 83 -33 182 -83 108 -47 l 83 -122 b 263 -175 113 -140 182 -175 b 482 17 394 -175 482 -78 b 289 188 482 124 392 188 b 349 231 289 188 325 210 b 461 331 424 297 461 331 l 461 410 l 110 410 z "},"₄":{"ha":571,"x_min":0,"x_max":0,"o":"m 410 -169 l 410 -24 l 501 -24 l 501 65 l 410 65 l 410 413 l 325 413 l 56 54 l 56 -24 l 313 -24 l 313 -169 z m 317 265 b 313 186 317 265 313 213 l 313 65 l 244 65 b 165 61 226 65 168 61 z "},"₡":{"ha":844,"x_min":0,"x_max":0,"o":"m 490 1010 b 83 507 260 982 83 786 b 200 157 83 364 126 244 l 90 -167 l 189 -167 l 275 86 b 376 31 306 64 340 44 l 310 -167 l 408 -167 l 467 7 b 547 0 493 3 519 0 b 796 51 678 0 742 25 l 796 158 b 551 119 758 144 682 119 b 506 121 535 119 519 119 l 761 871 b 793 861 774 868 785 864 l 793 965 l 867 1182 l 768 1182 l 704 996 b 590 1013 671 1004 633 1011 l 647 1182 l 549 1182 z m 550 897 b 668 889 594 897 635 893 l 413 138 b 313 197 365 153 335 175 z m 308 818 b 449 888 336 846 379 874 l 254 314 b 231 507 240 364 231 431 b 308 818 231 675 274 782 z "},"₤":{"ha":771,"x_min":0,"x_max":0,"o":"m 60 351 l 188 351 b 75 151 176 236 135 207 b 14 0 36 115 14 61 l 156 0 b 181 86 156 43 167 72 b 246 101 193 97 210 101 b 524 -11 361 101 381 -11 b 757 208 649 -11 743 76 l 615 208 b 593 121 615 169 607 135 b 525 103 582 110 567 103 b 249 214 411 103 388 214 b 288 265 260 225 275 244 b 314 351 297 282 308 311 l 590 351 l 590 456 l 317 456 l 317 572 l 590 572 l 590 676 l 317 676 b 354 875 317 828 336 857 b 476 911 374 894 415 911 b 656 868 556 911 635 882 l 656 975 b 474 1025 632 993 558 1025 b 188 676 311 1025 189 900 l 60 676 l 60 572 l 188 572 l 188 456 l 60 456 z "},"€":{"ha":778,"x_min":0,"x_max":0,"o":"m -28 338 l 113 338 b 513 -11 169 131 326 -11 b 731 40 631 -11 682 14 l 731 147 b 517 107 697 133 633 107 b 299 188 394 107 333 150 b 235 338 279 207 251 267 l 475 338 l 524 442 l 226 442 b 224 508 224 465 224 482 b 228 592 224 542 225 561 l 592 592 l 640 696 l 240 696 b 297 831 256 758 279 811 b 517 910 332 868 397 910 b 719 871 631 910 688 885 l 764 965 b 514 1025 711 996 633 1025 b 118 696 336 1025 181 889 l 19 696 l -28 592 l 97 592 b 93 508 93 561 93 542 b 97 442 93 482 94 467 l 19 442 z "},"₴":{"ha":794,"x_min":0,"x_max":0,"o":"m 760 351 l 760 456 l 386 456 b 592 572 431 479 506 506 l 760 572 l 760 676 l 674 676 b 700 779 688 701 700 733 b 390 1025 700 894 585 1025 b 117 951 258 1025 165 983 l 117 844 b 394 910 168 869 258 910 b 546 863 489 910 528 882 b 535 676 574 832 571 710 l 35 676 l 35 572 l 406 572 b 204 456 346 539 260 503 l 35 456 l 35 351 l 115 351 b 89 251 103 325 89 296 b 407 -11 89 113 221 -11 b 710 79 567 -11 650 43 l 710 193 b 403 107 656 165 561 107 b 249 157 303 107 264 135 b 254 351 215 203 221 317 z "},"₽":{"ha":842,"x_min":0,"x_max":0,"o":"m 290 0 l 290 200 l 615 200 l 615 304 l 290 304 l 290 417 l 450 417 b 814 708 654 417 814 500 b 429 1018 814 917 667 1018 b 160 1014 313 1018 160 1014 l 160 521 l 35 521 l 35 417 l 160 417 l 160 304 l 35 304 l 35 200 l 160 200 l 160 0 z m 290 903 b 428 906 290 903 376 906 b 619 865 567 906 597 883 b 671 711 639 850 671 807 b 618 557 671 610 639 572 b 428 521 593 539 567 521 l 290 521 z "},"№":{"ha":1565,"x_min":0,"x_max":0,"o":"m 153 1014 b 153 0 153 675 153 336 l 272 0 l 272 663 b 268 800 272 710 268 800 b 338 679 268 800 307 725 l 806 0 l 904 0 l 904 1014 l 785 1014 l 785 339 b 789 217 785 293 789 217 b 719 335 789 217 750 289 l 251 1014 z m 1036 793 b 1263 560 1036 657 1138 560 b 1489 793 1386 560 1489 657 b 1263 1022 1489 926 1386 1022 b 1036 793 1138 1022 1036 926 z m 1151 793 b 1174 903 1151 850 1163 890 b 1263 929 1185 915 1217 929 b 1351 903 1308 929 1340 915 b 1374 793 1361 890 1374 850 b 1351 681 1374 736 1361 693 b 1263 654 1340 668 1308 654 b 1174 681 1217 654 1185 668 b 1151 793 1163 692 1151 738 z m 1056 365 l 1460 365 l 1460 465 l 1056 465 z "},"™":{"ha":1307,"x_min":0,"x_max":0,"o":"m 214 500 b 329 500 214 500 329 500 l 329 910 l 513 910 l 513 1014 l 31 1014 l 31 910 l 214 910 z m 1215 500 l 1101 500 l 1101 774 b 1106 843 1101 790 1104 817 b 1063 769 1090 815 1075 789 l 921 565 l 894 565 l 743 769 b 699 843 731 788 714 815 b 704 772 701 817 704 790 l 704 500 l 590 500 l 590 1014 l 697 1014 l 860 792 b 911 715 888 756 911 715 b 958 793 911 715 935 758 l 1110 1014 l 1215 1014 z "},"":{"ha":731,"x_min":0,"x_max":0,"o":"m 125 1186 b 206 1111 125 1146 160 1111 b 283 1186 249 1111 283 1146 b 206 1263 283 1226 249 1263 b 125 1186 160 1263 125 1226 z m 444 1186 b 525 1111 444 1146 482 1111 b 606 1186 571 1111 606 1146 b 525 1263 606 1226 571 1263 b 444 1186 482 1263 444 1226 z "}}}
